<svg clip-rule="evenodd" fill-rule="evenodd" stroke-miterlimit="10" viewBox="0 0 1920 360" xmlns="http://www.w3.org/2000/svg"><g fill="none"><path d="m-62.508-91.665h262.916" stroke="#18709c" stroke-width=".92" transform="matrix(.793293 .709923 .709923 -.793293 1698.51 125.412)"/><path d="m-75.237 44.715h97.564" stroke="#18709c" stroke-width=".92" transform="matrix(.0557577 -1.06311 -1.06311 -.0557577 1635.58 76.2614)"/><path d="m-298.76-4.13h269.75" stroke="#18709c" stroke-width=".92" transform="matrix(-1.06457 .00102609 .00102609 1.06457 1265.8 158.456)"/><path d="m-253.78-9.185h224.89" stroke="#18709c" stroke-width=".92" transform="matrix(-1.06343 .0490889 .0490889 1.06343 1314.42 175.979)"/><path d="m-80.626-74.005h146.562" stroke="#77b1c1" stroke-width="1.84" transform="matrix(.314733 1.01698 1.01698 -.314733 1684.49 212.456)"/><path d="m-88.259-96.255h202.898" stroke="#77b1c1" stroke-width="1.84" transform="matrix(.442832 .968092 .968092 -.442832 1716.12 196.571)"/><path d="m-36.413-40.97h192.016" stroke="#18709c" stroke-width=".92" transform="matrix(.982476 .409933 .409933 -.982476 1636.42 128.428)"/><path d="m-212.005 3.945h183.34" stroke="#18709c" stroke-width=".92" transform="matrix(-1.06056 -.0922657 -.0922657 1.06056 1359.37 130.008)"/><path d="m-281.069 12.415h253.128" stroke="#18709c" stroke-width=".92" transform="matrix(-1.05558 -.138071 -.138071 1.05558 1288.87 101.841)"/><path d="m-29.729 10.49h292.748" stroke="#18709c" stroke-width=".92" transform="matrix(1.05934 -.105385 -.105385 -1.05934 1616.45 161.733)"/><path d="m-64.56-86.48h226.91" stroke="#18709c" stroke-width=".92" transform="matrix(.730993 .773921 .773921 -.730993 1697.97 140.501)"/><path d="m-50.924-72.35h235.098" stroke="#18709c" stroke-width=".92" transform="matrix(.866106 .619003 .619003 -.866106 1672.74 122.612)"/><path d="m-83.592 63.69h138.527" stroke="#18709c" stroke-width=".92" transform="matrix(.225651 -1.04038 -1.04038 -.225651 1668.97 81.1572)"/><path d="m-123.843-66.97h136.646" stroke="#77b1c1" stroke-width="1.84" transform="matrix(-.413064 .981163 .981163 .413064 1598.4 302.926)"/><path d="m-81.487-47.075h87.834" stroke="#77b1c1" stroke-width="1.84" transform="matrix(-.207497 1.04415 1.04415 .207497 1616.09 248.606)"/><path d="m-42.502-52.06h184.684" stroke="#18709c" stroke-width=".92" transform="matrix(.909022 .55406 .55406 -.909022 1651.33 129.978)"/><path d="m-29.955-16.825h175.02" stroke="#9984be" stroke-width="2.75" transform="matrix(1.05307 .156018 .156018 -1.05307 1618.02 140.709)"/><path d="m-49.236 48.41h156.032" stroke="#18709c" stroke-width=".92" transform="matrix(.788574 -.715161 -.715161 -.788574 1657.3 156.716)"/><path d="m-284.725-26.81h257.75" stroke="#18709c" stroke-width=".92" transform="matrix(-1.04776 .188422 .188422 1.04776 1290.58 235.492)"/><path d="m-240.712 20.57h214.554" stroke="#18709c" stroke-width=".92" transform="matrix(-1.03627 -.243822 -.243822 1.03627 1339.42 73.7462)"/><path d="m-92.585-67.4h126.8" stroke="#77b1c1" stroke-width="1.84" transform="matrix(-.00293846 1.06456 1.06456 .00293846 1655.33 252.514)"/><path d="m-133.75-54.74h129.32" stroke="#77b1c1" stroke-width="1.84" transform="matrix(-.659877 .835384 .835384 .659877 1541.32 301.608)"/><path d="m-167.401-12.65h138.932" stroke="#77b1c1" stroke-width="1.84" transform="matrix(-1.05628 .132562 .132562 1.05628 1408.7 189.306)"/><path d="m-246.619-38.435h223.058" stroke="#18709c" stroke-width=".92" transform="matrix(-1.01255 .328689 .328689 1.01255 1346.77 273.732)"/><path d="m-50.548 31.65h80.546" stroke="#18709c" stroke-width=".92" transform="matrix(.495235 -.942362 -.942362 -.495235 1638.71 121.793)"/><path d="m-157.85 39.49h143.52" stroke="#18709c" stroke-width=".92" transform="matrix(-.846787 -.645178 -.645178 .846787 1475.66 18.472)"/><path d="m-29.012-4.47h119.814" stroke="#ae4eaf" stroke-width="3.67" transform="matrix(1.06453 .00835208 .00835208 -1.06453 1614.77 149.237)"/><path d="m-31.62 21.11h244.22" stroke="#18709c" stroke-width=".92" transform="matrix(1.04182 -.218912 -.218912 -1.04182 1621.41 168.824)"/><path d="m-29.037-1.34h260.054" stroke="#18709c" stroke-width=".92" transform="matrix(1.06434 -.0217781 -.0217781 -1.06434 1614.73 151.694)"/><path d="m-37.695 41.505h247.12" stroke="#18709c" stroke-width=".92" transform="matrix(.989743 -.392063 -.392063 -.989743 1637.43 180.054)"/><path d="m-50.322 58.165h202.644" stroke="#18709c" stroke-width=".92" transform="matrix(.840649 -.653156 -.653156 -.840649 1664.14 169.782)"/><path d="m-103.595 35.505h95.51" stroke="#18709c" stroke-width=".92" transform="matrix(-.598108 -.880665 -.880665 .598108 1553.16 41.2852)"/><path d="m-33.747 32.32h283.234" stroke="#18709c" stroke-width=".92" transform="matrix(1.02896 -.273026 -.273026 -1.02896 1627.4 177.795)"/><path d="m-37.2 27.43h128.8" stroke="#a51966" stroke-width="5.51" transform="matrix(.929177 -.519552 -.519552 -.929177 1632.67 159.913)"/><path d="m-211.527-24.025h184.714" stroke="#18709c" stroke-width=".92" transform="matrix(-1.03924 .230821 .230821 1.03924 1369.57 227.546)"/><path d="m55.201-183.92h111.898" stroke="#18709c" stroke-width=".92" transform="matrix(-1.06098 .0873367 .0873367 1.06098 1867.05 530.718)"/><path d="m126.141-174.145h41.428" stroke="#18709c" stroke-width=".92" transform="matrix(-1.03068 -.26647 -.26647 1.03068 1876.03 553.504)"/><path d="m145.131-160.015h38.908" stroke="#18709c" stroke-width=".92" transform="matrix(-.127227 -1.05694 -1.05694 .127227 1641.76 514.156)"/><path d="m-34.292 112.405h45.037" stroke="#18709c" stroke-width=".92" transform="matrix(.573272 -.89703 -.89703 -.573272 1709.78 83.7095)"/><path d="m-28.516 80.365h41.592" stroke="#18709c" stroke-width=".92" transform="matrix(.828257 .6688 .6688 -.828257 1559.16 135.667)"/><path d="m-26.615 76.145h112.74" stroke="#18709c" stroke-width=".92" transform="matrix(1.01329 .326431 .326431 -1.01329 1591.4 135.877)"/><path d="m-299.32-9.315h46.22" stroke="#18709c" stroke-width=".92" transform="matrix(1.03879 .232863 .232863 -1.03879 1609.78 214.054)"/><path d="m-299.502 3.815h88.584" stroke="#18709c" stroke-width=".92" transform="matrix(1.04673 -.194083 -.194083 -1.04673 1610.92 99.8948)"/><path d="m-308.399 12.285h38.038" stroke="#18709c" stroke-width=".92" transform="matrix(.525036 -.926089 -.926089 -.525036 1469.98 -125.125)"/><path d="m-314.786-26.94h48.122" stroke="#18709c" stroke-width=".92" transform="matrix(.355501 1.00346 1.00346 -.355501 1435.62 460.327)"/><path d="m-307.518 20.44h78.416" stroke="#18709c" stroke-width=".92" transform="matrix(.826765 -.670644 -.670644 -.826765 1564.64 -35.3063)"/><path d="m-299.308-12.78h132.996" stroke="#18709c" stroke-width=".92" transform="matrix(1.05579 .136397 .136397 -1.05579 1614.43 181.361)"/><path d="m-314.753-38.565h89.576" stroke="#18709c" stroke-width=".92" transform="matrix(.684426 .815393 .815393 -.684426 1543.55 384.282)"/><path d="m-302.986-24.155h97.882" stroke="#18709c" stroke-width=".92" transform="matrix(.972639 .432755 .432755 -.972639 1601.83 261.655)"/><path d="m-257.427-1.24h49.534" stroke="#18709c" stroke-width=".92" transform="matrix(.902655 -.564374 -.564374 -.902655 1576.36 18.3883)"/><path d="m-292.128 7.23h50.596" stroke="#18709c" stroke-width=".92" transform="matrix(-.554199 -.908937 -.908937 .554199 1189.37 -104.741)"/><path d="m-291.008-31.995h45.666" stroke="#18709c" stroke-width=".92" transform="matrix(-.676761 .821765 .821765 .676761 1174.04 425.585)"/><path d="m-276.546 15.385h61.572" stroke="#18709c" stroke-width=".92" transform="matrix(.27318 -1.02892 -1.02892 -.27318 1436.07 -115.548)"/><path d="m-253.798-17.835h87.076" stroke="#18709c" stroke-width=".92" transform="matrix(1.06119 .0847241 .0847241 -1.06119 1615.53 167.369)"/><path d="m-277.324-43.62h59.818" stroke="#18709c" stroke-width=".92" transform="matrix(.22228 1.0411 1.0411 -.22228 1451.75 443.82)"/><path d="m-258.169-29.21h53.348" stroke="#18709c" stroke-width=".92" transform="matrix(.884605 .592264 .592264 -.884605 1590.37 291.858)"/><path d="m6.612-110.975h149.296" stroke="#18709c" stroke-width=".92" transform="matrix(.954646 -.47112 -.47112 -.954646 1571.38 199.976)"/><path d="m-56.387-117.08h80.964" stroke="#77b1c1" stroke-width="1.84" transform="matrix(-.79484 -.70819 -.70819 .79484 1502.24 355.93)"/><path d="m10.254-122.065h122.502" stroke="#18709c" stroke-width=".92" transform="matrix(.993896 -.381412 -.381412 -.993896 1573.23 185.394)"/><path d="m-7.276-86.83h172.992" stroke="#18709c" stroke-width=".92" transform="matrix(.79877 -.703754 -.703754 -.79877 1574.68 228.325)"/><path d="m-30.337-137.405h45.634" stroke="#77b1c1" stroke-width="1.84" transform="matrix(-1.01899 -.308169 -.308169 1.01899 1556.72 433.468)"/><path d="m-26.796-74.475h158.712" stroke="#18709c" stroke-width=".92" transform="matrix(.512991 -.932815 -.932815 -.512991 1574.25 239.602)"/><path d="m-58.291-42.575h214.312" stroke="#18709c" stroke-width=".92" transform="matrix(.343196 -1.00773 -1.00773 -.343196 1607.08 229.45)"/><path d="m-46.322-84.045h194.714" stroke="#18709c" stroke-width=".92" transform="matrix(-1.06247 .0667565 .0667565 1.06247 1728.9 324.855)"/><path d="m123.675-89.03h29.54" stroke="#18709c" stroke-width=".92" transform="matrix(-.703112 .799335 .799335 .703112 1930.62 196.207)"/><path d="m121.929-53.795h48.462" stroke="#18709c" stroke-width=".92" transform="matrix(-.0896255 -1.06079 -1.06079 .0896255 1726.36 366.629)"/><path d="m-33.211-104.37h185.262" stroke="#18709c" stroke-width=".92" transform="matrix(-1.02031 .30375 .30375 1.02031 1770.32 349.045)"/><path d="m73.068-41.44h92.864" stroke="#18709c" stroke-width=".92" transform="matrix(-.658016 -.83685 -.83685 .658016 1785.9 320.882)"/><path d="m40.121-9.54h151.368" stroke="#18709c" stroke-width=".92" transform="matrix(-.455669 -.962117 -.962117 .455669 1781.6 275.416)"/><path d="m54.076-178.735h74.038" stroke="#18709c" stroke-width=".92" transform="matrix(1.02678 -.281104 -.281104 -1.02678 1567.93 181.855)"/><path d="m50.287-164.605h117.076" stroke="#18709c" stroke-width=".92" transform="matrix(.971757 -.434731 -.434731 -.971757 1553.27 212.081)"/><path d="m-88.011-159.225h149.382" stroke="#18709c" stroke-width=".92" transform="matrix(-.979327 -.4174 -.4174 .979327 1521.05 469.374)"/><path d="m-119.05-146.995h184.32" stroke="#18709c" stroke-width=".92" transform="matrix(-.950439 -.479551 -.479551 .950439 1490.06 432.796)"/><path d="m-20.382-96.725h186.954" stroke="#18709c" stroke-width=".92" transform="matrix(.201634 -1.0453 -1.0453 -.201634 1576.7 309.368)"/><path d="m-281.034 20.36h70.408" stroke="#18709c" stroke-width=".92" transform="matrix(-1.0333 -.256132 -.256132 1.0333 1104.23 43.8175)"/><path d="m-294.156-18.865h93.962" stroke="#18709c" stroke-width=".92" transform="matrix(-.804758 .696898 .696898 .804758 1165.83 357.016)"/><path d="m-245.926 28.515h42.332" stroke="#18709c" stroke-width=".92" transform="matrix(-.658878 -.836172 -.836172 .658878 1251.21 -87.5872)"/><path d="m-217.137-4.705h55.754" stroke="#18709c" stroke-width=".92" transform="matrix(.855397 .633719 .633719 -.855397 1578.13 270.417)"/><path d="m-271.29-30.49h89.75" stroke="#18709c" stroke-width=".92" transform="matrix(-.350031 1.00538 1.00538 .350031 1325.1 420.258)"/><path d="m-238.489-16.08h55.988" stroke="#18709c" stroke-width=".92" transform="matrix(.0443027 1.06365 1.06365 -.0443027 1417.08 389.793)"/><path d="m-320.593-10.395h78.496" stroke="#18709c" stroke-width=".92" transform="matrix(-.0364819 1.06394 1.06394 .0364819 1316.02 460.275)"/><path d="m-281.523 36.985h45.186" stroke="#18709c" stroke-width=".92" transform="matrix(.992799 -.384256 -.384256 -.992799 1610.36 47.345)"/><path d="m-285.304 3.765h123.748" stroke="#18709c" stroke-width=".92" transform="matrix(.973306 .431252 .431252 -.973306 1592.72 245.506)"/><path d="m-315.015-22.02h108.86" stroke="#18709c" stroke-width=".92" transform="matrix(.379725 .994541 .994541 -.379725 1458.17 423.738)"/><path d="m-295.424-7.61h101.518" stroke="#18709c" stroke-width=".92" transform="matrix(.741086 .764261 .764261 -.741086 1541.4 338.944)"/><path d="m138.112-2.335h130.196" stroke="#18709c" stroke-width=".92" transform="matrix(-.966318 .446691 .446691 .966318 2028.47 63.4648)"/><path d="m89.505 10.02h174.09" stroke="#18709c" stroke-width=".92" transform="matrix(-1.04873 .182962 .182962 1.04873 1986 96.0177)"/><path d="m207.916 35.6h56.458" stroke="#18709c" stroke-width=".92" transform="matrix(-.986358 -.400502 -.400502 .986358 2113.31 171.058)"/><path d="m227.023 13.15h39.244" stroke="#18709c" stroke-width=".92" transform="matrix(-.849337 .641818 .641818 .849337 2078.35 -33.9742)"/><path d="m187.824 55.995h87.392" stroke="#18709c" stroke-width=".92" transform="matrix(-.749895 -.75562 -.75562 .749895 2077.13 222.835)"/><path d="m229.997 46.81h47.056" stroke="#18709c" stroke-width=".92" transform="matrix(-.397047 -.987754 -.987754 .397047 2031.53 331.497)"/><path d="m81.82 41.92h182.07" stroke="#18709c" stroke-width=".92" transform="matrix(-1.04597 -.198097 -.198097 1.04597 1987.85 95.263)"/><path d="m121.858-154.83h45.344" stroke="#18709c" stroke-width=".92" transform="matrix(.832523 -.663483 -.663483 -.832523 1545.54 281.315)"/><path d="m-27.889 99.34h64.591" stroke="#18709c" stroke-width=".92" transform="matrix(.133618 1.05615 1.05615 -.133618 1513.92 52.3604)"/><path d="m-13.249 95.12h110.261" stroke="#18709c" stroke-width=".92" transform="matrix(.801909 .700175 .700175 -.801909 1559.13 95.1864)"/><path d="m-113.868-117.71h36.536" stroke="#77b1c1" stroke-width="1.84" transform="matrix(-.790794 -.712705 -.712705 .790794 1353.47 299.755)"/><path d="m-102.263-67.44h213.296" stroke="#18709c" stroke-width=".92" transform="matrix(.8626 -.623879 -.623879 -.8626 1573.54 165.851)"/><path d="m-46.272-95.135h175.104" stroke="#18709c" stroke-width=".92" transform="matrix(1.06284 .0606139 .0606139 -1.06284 1620.57 147.157)"/><path d="m-50.824-59.9h199.638" stroke="#18709c" stroke-width=".92" transform="matrix(1.01451 -.322616 -.322616 -1.01451 1597.86 168.3)"/><path d="m-59.732-110.475h43.974" stroke="#77b1c1" stroke-width="1.84" transform="matrix(.405991 .984111 .984111 -.405991 1698.59 259.396)"/><path d="m-58.304-47.545h161.278" stroke="#18709c" stroke-width=".92" transform="matrix(.903851 -.562456 -.562456 -.903851 1591.58 169.699)"/><path d="m-80.083-15.645h197.446" stroke="#18709c" stroke-width=".92" transform="matrix(.698442 -.803419 -.803419 -.698442 1608.99 170.199)"/><path d="m100.335-64.885h72.14" stroke="#18709c" stroke-width=".92" transform="matrix(.227702 -1.03993 -1.03993 -.227702 1661.41 345.647)"/><path d="m-30.835-115.46h161" stroke="#18709c" stroke-width=".92" transform="matrix(-1.04506 .202863 .202863 1.04506 1742.93 382.997)"/><path d="m58.523-52.53h102.444" stroke="#18709c" stroke-width=".92" transform="matrix(-.393739 -.989077 -.989077 .393739 1722.82 334.646)"/><path d="m23.399-20.63h165.302" stroke="#18709c" stroke-width=".92" transform="matrix(-.291608 -1.02385 -1.02385 .291608 1737.43 286.052)"/><path d="m44.046 35.585h142.598" stroke="#18709c" stroke-width=".92" transform="matrix(-.429638 -.97402 -.97402 .429638 1821.74 208.672)"/><path d="m-43.027-80.225h200.814" stroke="#18709c" stroke-width=".92" transform="matrix(-.919658 .53622 .53622 .919658 1771.61 277.911)"/><path d="m88.076-17.295h58.768" stroke="#9984be" stroke-width="2.75" transform="matrix(-.965888 -.44762 -.44762 .965888 1845.49 237.189)"/><path d="m126.818 8.285h100.474" stroke="#18709c" stroke-width=".92" transform="matrix(.697919 -.803873 -.803873 -.697919 1686.31 288.787)"/><path d="m141.442-14.165h92.226" stroke="#18709c" stroke-width=".92" transform="matrix(1.00275 -.35749 -.35749 -1.00275 1621.26 217.419)"/><path d="m107.593 28.68h129.674" stroke="#18709c" stroke-width=".92" transform="matrix(.464825 -.957727 -.957727 -.464825 1745.61 297.435)"/><path d="m62.289 45.34h150.552" stroke="#18709c" stroke-width=".92" transform="matrix(-.0927021 -1.06052 -1.06052 .0927021 1822.02 242.915)"/><path d="m124.101 19.495h140.668" stroke="#18709c" stroke-width=".92" transform="matrix(.761565 -.743856 -.743856 -.761565 1688.15 288.219)"/><path d="m60.1 14.605h107.33" stroke="#9984be" stroke-width="2.75" transform="matrix(-.602161 -.877899 -.877899 .602161 1817.17 225.026)"/><path d="m35.763 47.94h105.844" stroke="#18709c" stroke-width=".92" transform="matrix(.0425447 1.06372 1.06372 -.0425447 1654.38 6.16332)"/><path d="m84.523 110.575h48.534" stroke="#18709c" stroke-width=".92" transform="matrix(.974767 -.427941 -.427941 -.974767 1671.82 186.121)"/><path d="m63.951 79.84h42.078" stroke="#18709c" stroke-width=".92" transform="matrix(-.079946 1.06156 1.06156 .079946 1627.25 -32.1052)"/><path d="m-312.69-2.24h104.83" stroke="#18709c" stroke-width=".92" transform="matrix(.45526 -.962311 -.962311 -.45526 1453.99 -99.6058)"/><path d="m-284.396-35.46h119.242" stroke="#18709c" stroke-width=".92" transform="matrix(1.03411 -.252835 -.252835 -1.03411 1598.92 93.7439)"/><path d="m-285.723-61.245h47.586" stroke="#18709c" stroke-width=".92" transform="matrix(.928853 .520131 .520131 -.928853 1611.04 294.045)"/><path d="m-282.796-46.835h73.572" stroke="#18709c" stroke-width=".92" transform="matrix(1.06151 -.0805974 -.0805974 -1.06151 1610.21 129.81)"/><path d="m-250.979 11.92h97.238" stroke="#18709c" stroke-width=".92" transform="matrix(.77731 .727387 .727387 -.77731 1547.93 293.265)"/><path d="m-298.543-13.865h118.056" stroke="#18709c" stroke-width=".92" transform="matrix(-.0298477 1.06415 1.06415 .0298477 1367.36 419.548)"/><path d="m-270.416.545h93.642" stroke="#18709c" stroke-width=".92" transform="matrix(.324343 1.01396 1.01396 -.324343 1448.67 375.807)"/><path d="m-56.285-67.87h174.01" stroke="#18709c" stroke-width=".92" transform="matrix(.735125 -.769997 -.769997 -.735125 1572.59 195.508)"/><path d="m-83.302-35.97h220.654" stroke="#18709c" stroke-width=".92" transform="matrix(.544071 -.915036 -.915036 -.544071 1595.89 192.946)"/><path d="m-121.096-55.21h223.822" stroke="#18709c" stroke-width=".92" transform="matrix(.95112 -.4782 -.4782 -.95112 1587.29 151.366)"/><path d="m-249.241-47.085h90.452" stroke="#18709c" stroke-width=".92" transform="matrix(-.874592 .606953 .606953 .874592 1247.69 364.628)"/><path d="m-173.122 18.78h262.794" stroke="#18709c" stroke-width=".92" transform="matrix(1.01383 -.324725 -.324725 -1.01383 1618.71 134.993)"/><path d="m-212.185-32.675h48.18" stroke="#18709c" stroke-width=".92" transform="matrix(-.938411 .502681 .502681 .938411 1254.41 309.494)"/><path d="m-246.723-58.46h42.946" stroke="#18709c" stroke-width=".92" transform="matrix(.789262 -.714401 -.714401 -.789262 1510.96 4.67031)"/><path d="m8.223 63.08h75.424" stroke="#18709c" stroke-width=".92" transform="matrix(1.05788 .119126 .119126 -1.05788 1607.53 143.601)"/><path d="m-143.431 78.995h61.022" stroke="#18709c" stroke-width=".92" transform="matrix(1.05545 .13904 .13904 -1.05545 1602.72 164.475)"/><path d="m85.542 20.64h129.706" stroke="#18709c" stroke-width=".92" transform="matrix(.978258 -.419898 -.419898 -.978258 1636.38 210.864)"/><path d="m90.73-1.81h140.33" stroke="#18709c" stroke-width=".92" transform="matrix(1.06351 -.0474895 -.0474895 -1.06351 1614.82 157.138)"/><path d="m74.108 41.035h143.324" stroke="#18709c" stroke-width=".92" transform="matrix(.816604 -.68298 -.68298 -.816604 1678.9 238.878)"/><path d="m45.122 57.695h131.566" stroke="#18709c" stroke-width=".92" transform="matrix(.325361 -1.01363 -1.01363 -.325361 1755.2 219.263)"/><path d="m82.46 31.85h170.63" stroke="#18709c" stroke-width=".92" transform="matrix(.9605 -.459068 -.459068 -.9605 1646.81 223.2)"/><path d="m54.992 26.96h64.226" stroke="#9984be" stroke-width="2.75" transform="matrix(-.122491 -1.0575 -1.0575 .122491 1746.64 209.605)"/><path d="m195.706 23.77h49.568" stroke="#18709c" stroke-width=".92" transform="matrix(.451013 .964309 .964309 -.451013 1727.09 -77.7098)"/><path d="m184.452 66.615h41.826" stroke="#18709c" stroke-width=".92" transform="matrix(-.235436 -1.03821 -1.03821 .235436 1950.87 276.107)"/><path d="m206.688 57.43h41.364" stroke="#18709c" stroke-width=".92" transform="matrix(.89462 -.577025 -.577025 -.89462 1686.51 270.933)"/><path d="m83.095 52.54h127.21" stroke="#18709c" stroke-width=".92" transform="matrix(-1.0593 -.105779 -.105779 1.0593 1931.86 53.4247)"/><path d="m170.429 44.165h90.872" stroke="#18709c" stroke-width=".92" transform="matrix(-.354377 -1.00385 -1.00385 .354377 1965.37 303.524)"/><path d="m203.514 34.98h68.712" stroke="#18709c" stroke-width=".92" transform="matrix(.213187 -1.043 -1.043 -.213187 1853.73 367.813)"/><path d="m78 30.09h158.4" stroke="#18709c" stroke-width=".92" transform="matrix(-.991846 -.386711 -.386711 .991846 1949.64 148.408)"/><path d="m198.9 77.825h47.69" stroke="#18709c" stroke-width=".92" transform="matrix(.98242 .410067 .410067 -.98242 1601.12 51.7613)"/><path d="m81.745 72.935h120.66" stroke="#18709c" stroke-width=".92" transform="matrix(-1.03519 .248364 .248364 1.03519 1894.94 -38.9374)"/><path d="m68.337 89.595h77.746" stroke="#18709c" stroke-width=".92" transform="matrix(-.651788 .84171 .84171 .651788 1723.33 -94.5218)"/><path d="m83.262 63.75h161.636" stroke="#18709c" stroke-width=".92" transform="matrix(-1.06262 .064413 .064413 1.06262 1959.65 3.31795)"/><path d="m55.59-2.355h162.52" stroke="#18709c" stroke-width=".92" transform="matrix(-.700108 -.801967 -.801967 .700108 1854.34 263.4)"/><path d="m146.026 2.535h142.988" stroke="#18709c" stroke-width=".92" transform="matrix(.405465 -.984328 -.984328 -.405465 1760.6 361.935)"/><path d="m120.044 11.72h150.942" stroke="#18709c" stroke-width=".92" transform="matrix(.0737019 -1.06201 -1.06201 -.0737019 1820.91 345.521)"/><path d="m172.341-31.125h76.598" stroke="#18709c" stroke-width=".92" transform="matrix(.565656 -.901852 -.901852 -.565656 1691.75 354.99)"/><path d="m144.368-8.675h111.544" stroke="#18709c" stroke-width=".92" transform="matrix(.188016 -1.04783 -1.04783 -.188016 1781.08 366.812)"/><path d="m82.805-34.255h115.48" stroke="#18709c" stroke-width=".92" transform="matrix(-.917158 -.540486 -.540486 .917158 1874.74 293.341)"/><path d="m138.56-46.61h57.29" stroke="#18709c" stroke-width=".92" transform="matrix(-.857923 -.630295 -.630295 .857923 1906.8 344.491)"/><path d="m169.228-19.295h114.134" stroke="#18709c" stroke-width=".92" transform="matrix(.671663 -.825937 -.825937 -.671663 1687.71 343.981)"/><path d="m-32.983-33.785h227.246" stroke="#18709c" stroke-width=".92" transform="matrix(1.02734 .279064 .279064 -1.02734 1627.16 128.249)"/><path d="m135.242-102.135h82.066" stroke="#18709c" stroke-width=".92" transform="matrix(-.363611 1.00055 1.00055 .363611 1968.68 118.991)"/><path d="m97.027-116.265h123.036" stroke="#18709c" stroke-width=".92" transform="matrix(-.549343 .91188 .91188 .549343 1976.63 192.562)"/><path d="m30.905-126.04h183.87" stroke="#18709c" stroke-width=".92" transform="matrix(-.781044 .723377 .723377 .781044 1932.62 293.256)"/><path d="m119.551-121.45h118.098" stroke="#18709c" stroke-width=".92" transform="matrix(.210755 -1.0435 -1.0435 -.210755 1640.49 439.559)"/></g><path d="m-29.01-24c11.05 0 20 8.96 20 20 0 11.05-8.95 20-20 20s-20-8.95-20-20c0-11.04 8.95-20 20-20" fill="#84e4f1" fill-rule="nonzero" stroke="#000" stroke-width=".92" transform="matrix(0 -1.06457 -1.06457 0 1579.59 122.87)"/><path d="m166.91-184.33c2.77 0 5 2.24 5 5 0 2.77-2.23 5-5 5-2.76 0-5-2.23-5-5 0-2.76 2.24-5 5-5" fill="#b99dff" fill-rule="nonzero" stroke="#000" stroke-width=".92" transform="matrix(0 -1.06457 -1.06457 0 1601.51 518.091)"/><path d="m-23.9 88.43c2.76 0 5 2.24 5 5s-2.24 5-5 5-5-2.24-5-5 2.24-5 5-5" fill="#f3f576" fill-rule="nonzero" stroke="#000" stroke-width=".92" transform="matrix(0 -1.06457 -1.06457 0 1688.75 24.5891)"/><path d="m-298.761-9.259c2.76 0 5.002 2.24 5.002 5s-2.242 5-5.002 5-5-2.24-5-5 2.24-5 5-5" fill="#7ea4ff" fill-rule="nonzero" stroke="#000" stroke-width=".92" transform="matrix(0 -1.06457 -1.06457 0 1292.15 -164.021)"/><path d="m-253.66-19.37c2.76 0 5 2.24 5 5 0 2.77-2.24 5-5 5-2.77 0-5-2.23-5-5 0-2.76 2.23-5 5-5" fill="#7ea4ff" fill-rule="nonzero" stroke="#000" stroke-width=".92" transform="matrix(0 -1.06457 -1.06457 0 1329.4 -105.245)"/><path d="m14.32-149.01c2.76 0 5 2.24 5 5s-2.24 5-5 5-5-2.24-5-5 2.24-5 5-5" fill="#ffb689" fill-rule="nonzero" stroke="#000" stroke-width=".92" transform="matrix(0 -1.06457 -1.06457 0 1476.67 318.048)"/><path d="m55.39-193.69c2.86 0 5.18 2.32 5.18 5.18s-2.32 5.18-5.18 5.18-5.18-2.32-5.18-5.18 2.32-5.18 5.18-5.18" fill="#b99dff" fill-rule="nonzero" stroke="#000" stroke-width=".92" transform="matrix(0 -1.06457 -1.06457 0 1473.02 409.143)"/><path d="m148.2-82.94c2.76 0 5 2.24 5 5s-2.24 5-5 5-5-2.24-5-5 2.24-5 5-5" fill="#b99dff" fill-rule="nonzero" stroke="#000" stroke-width=".92" transform="matrix(0 -1.06457 -1.06457 0 1689.53 390.236)"/><path d="m-211.66 6.89c2.76 0 5 2.24 5 5s-2.24 5-5 5c-2.77 0-5-2.24-5-5s2.23-5 5-5" fill="#7ea4ff" fill-rule="nonzero" stroke="#000" stroke-width=".92" transform="matrix(0 -1.06457 -1.06457 0 1402.06 -88.4892)"/><path d="m-280 23.83c2.77 0 5 2.24 5 5s-2.23 5-5 5c-2.76 0-5-2.24-5-5s2.24-5 5-5" fill="#7ea4ff" fill-rule="nonzero" stroke="#000" stroke-width=".92" transform="matrix(0 -1.06457 -1.06457 0 1347.35 -179.276)"/><path d="m262.3 19.98c2.76 0 5 2.24 5 5 0 2.77-2.24 5-5 5s-5-2.23-5-5c0-2.76 2.24-5 5-5" fill="#ff4c76" fill-rule="nonzero" stroke="#000" stroke-width=".92" transform="matrix(0 -1.06457 -1.06457 0 1920.56 402.138)"/><path d="m126.8-173.96c2.76 0 5 2.24 5 5s-2.24 5-5 5c-2.77 0-5-2.24-5-5s2.23-5 5-5" fill="#bbd587" fill-rule="nonzero" stroke="#000" stroke-width=".92" transform="matrix(0 -1.06457 -1.06457 0 1569.85 464.351)"/><path d="m162.26-145.7c2.76 0 5 2.24 5 5s-2.24 5-5 5-5-2.24-5-5 2.24-5 5-5" fill="#bbd587" fill-rule="nonzero" stroke="#000" stroke-width=".92" transform="matrix(0 -1.06457 -1.06457 0 1637.68 472.016)"/><path d="m.35 126.38c2.76 0 5 2.24 5 4.997 0 2.763-2.24 5.003-5 5.003s-5-2.24-5-5.003c0-2.757 2.24-4.997 5-4.997" fill="#deb14c" fill-rule="nonzero" stroke="#000" stroke-width=".92" transform="matrix(0 -1.06457 -1.06457 0 1754.97 10.0046)"/><path d="m-82.03-134.94c2.76 0 5 2.24 5 5s-2.24 5-5 5-5-2.24-5-5 2.24-5 5-5" fill="#4cc78e" fill-rule="nonzero" stroke="#000" stroke-width=".92" transform="matrix(0 -1.06457 -1.06457 0 1389.08 200.498)"/><path d="m-46.13-95.15c2.76 0 5 2.24 5 5s-2.24 5-5 5-5-2.24-5-5 2.24-5 5-5" fill="#ffb689" fill-rule="nonzero" stroke="#000" stroke-width=".92" transform="matrix(0 -1.06457 -1.06457 0 1469.65 196.357)"/><path d="m128.69-105.12c2.76 0 5 2.24 5 5s-2.24 5-5 5-5-2.24-5-5 2.24-5 5-5" fill="#9fffeb" fill-rule="nonzero" stroke="#000" stroke-width=".92" transform="matrix(0 -1.06457 -1.06457 0 1645.15 393.078)"/><path d="m144.12-35.15c3.04 0 5.5 2.46 5.5 5.5s-2.46 5.5-5.5 5.5-5.5-2.46-5.5-5.5 2.46-5.5 5.5-5.5" fill="#ff4c76" fill-rule="nonzero" stroke="#000" stroke-width=".92" transform="matrix(0 -1.06457 -1.06457 0 1736.59 334.485)"/><path d="m86.57 95.82c2.77 0 5 2.24 5 5 0 2.77-2.23 5-5 5-2.76 0-5-2.23-5-5 0-2.76 2.24-5 5-5" fill="#ff4c76" fill-rule="nonzero" stroke="#000" stroke-width=".92" transform="matrix(0 -1.06457 -1.06457 0 1814.22 134.325)"/><path d="m-282.69-54.62c2.76 0 5 2.24 5 5 0 2.77-2.24 5-5 5s-5-2.23-5-5c0-2.76 2.24-5 5-5" fill="#7ea4ff" fill-rule="nonzero" stroke="#000" stroke-width=".92" transform="matrix(0 -1.06457 -1.06457 0 1260.97 -98.6239)"/><path d="m-237.86 40.14c2.76 0 5 2.24 5 5s-2.24 5-5 5-5-2.24-5-5 2.24-5 5-5" fill="#7ea4ff" fill-rule="nonzero" stroke="#000" stroke-width=".92" transform="matrix(0 -1.06457 -1.06457 0 1409.57 -151.778)"/><path d="m-29.36-135.8c2.76 0 5 2.24 5 5s-2.24 5-5 5-5-2.24-5-5 2.24-5 5-5" fill="#ffb689" fill-rule="nonzero" stroke="#000" stroke-width=".92" transform="matrix(0 -1.06457 -1.06457 0 1444.23 257.485)"/><path d="m-109.17-110.48c2.76 0 5 2.24 5 5s-2.24 5-5 5-5-2.24-5-5 2.24-5 5-5" fill="#4cc78e" fill-rule="nonzero" stroke="#000" stroke-width=".92" transform="matrix(0 -1.06457 -1.06457 0 1386.22 145.567)"/><path d="m-166.86-26.46c2.84 0 5.15 2.31 5.15 5.15 0 2.85-2.31 5.16-5.15 5.16-2.85 0-5.16-2.31-5.16-5.16 0-2.84 2.31-5.15 5.16-5.15" fill="#7ea4ff" fill-rule="nonzero" stroke="#000" stroke-width=".92" transform="matrix(0 -1.06457 -1.06457 0 1414.41 -5.4636)"/><path d="m-241.17-77.87c2.77 0 5 2.23 5 5 0 2.76-2.23 5-5 5-2.76 0-5-2.24-5-5 0-2.77 2.24-5 5-5" fill="#7ea4ff" fill-rule="nonzero" stroke="#000" stroke-width=".92" transform="matrix(0 -1.06457 -1.06457 0 1280.42 -29.6719)"/><path d="m8.46 62.3c2.76 0 5 2.24 5 5 0 2.77-2.24 5-5 5s-5-2.23-5-5c0-2.76 2.24-5 5-5" fill="#f3f576" fill-rule="nonzero" stroke="#000" stroke-width=".92" transform="matrix(0 -1.06457 -1.06457 0 1695.38 86.8557)"/><path d="m-143.17 77.98c2.76 0 5 2.24 5 5s-2.24 5-5 5c-2.77 0-5-2.24-5-5s2.23-5 5-5" fill="#deb14c" fill-rule="nonzero" stroke="#000" stroke-width=".92" transform="matrix(0 -1.06457 -1.06457 0 1550.66 -91.2571)"/><path d="m90.8-11.23c3.48 0 6.29 2.81 6.29 6.29s-2.81 6.29-6.29 6.29-6.29-2.81-6.29-6.29 2.81-6.29 6.29-6.29" fill="#ff4c76" fill-rule="nonzero" stroke="#000" stroke-width=".92" transform="matrix(0 -1.06457 -1.06457 0 1706.14 251.416)"/><path d="m209.99 41.22c2.76 0 5 2.24 5 5s-2.24 5-5 5-5-2.24-5-5 2.24-5 5-5" fill="#ff4c76" fill-rule="nonzero" stroke="#000" stroke-width=".92" transform="matrix(0 -1.06457 -1.06457 0 1887.49 323.839)"/><path d="m230.99-3.68c2.76 0 5 2.24 5 5s-2.24 5-5 5-5-2.24-5-5 2.24-5 5-5" fill="#ff4c76" fill-rule="nonzero" stroke="#000" stroke-width=".92" transform="matrix(0 -1.06457 -1.06457 0 1862.04 393.994)"/><path d="m200.74 82.01c2.76 0 5 2.24 5 5s-2.24 5-5 5-5-2.24-5-5 2.24-5 5-5" fill="#ff4c76" fill-rule="nonzero" stroke="#000" stroke-width=".92" transform="matrix(0 -1.06457 -1.06457 0 1921.06 270.568)"/><path d="m131.01 115.33c2.77 0 5 2.24 5 5s-2.23 5-5 5c-2.76 0-5-2.24-5-5s2.24-5 5-5" fill="#d8ff93" fill-rule="nonzero" stroke="#000" stroke-width=".92" transform="matrix(0 -1.06457 -1.06457 0 1882.3 160.864)"/><path d="m-82.67 70.01c2.77 0 5 2.23 5 5 0 2.76-2.23 5-5 5-2.76 0-5-2.24-5-5 0-2.77 2.24-5 5-5" fill="#deb14c" fill-rule="nonzero" stroke="#000" stroke-width=".92" transform="matrix(0 -1.06457 -1.06457 0 1606.58 -18.3662)"/><path d="m244.75 63.64c2.76 0 5 2.23 5 5 0 2.76-2.24 5-5 5s-5-2.24-5-5c0-2.77 2.24-5 5-5" fill="#ff4c76" fill-rule="nonzero" stroke="#000" stroke-width=".92" transform="matrix(0 -1.06457 -1.06457 0 1948.36 336.976)"/><path d="m83.41 52.14c3.71 0 6.72 3.01 6.72 6.72s-3.01 6.72-6.72 6.72-6.72-3.01-6.72-6.72 3.01-6.72 6.72-6.72" fill="#f3f576" fill-rule="nonzero" stroke="#000" stroke-width=".92" transform="matrix(0 -1.06457 -1.06457 0 1766.19 175.63)"/><path d="m-209.33-49.05c2.76 0 5 2.24 5 5s-2.24 5-5 5c-2.77 0-5-2.24-5-5s2.23-5 5-5" fill="#7ea4ff" fill-rule="nonzero" stroke="#000" stroke-width=".92" transform="matrix(0 -1.06457 -1.06457 0 1344.99 -26.4569)"/><path d="m190.295-69.105c3.05 0 5.53 2.47 5.53 5.53s-2.48 5.53-5.53 5.53c-3.06 0-5.54-2.47-5.54-5.53s2.48-5.53 5.54-5.53" fill="#b99dff" fill-rule="nonzero" stroke="#000" stroke-width=".92" transform="matrix(0 -1.06457 -1.06457 0 1749.63 419.751)"/><path d="m-44.973 146.03h277.726" fill="none" stroke="#18709c" stroke-width=".94" transform="matrix(-.0447548 -.565274 -.565274 .0447548 378.704 155.324)"/><path d="m-19.986 112.82h213.522" fill="none" stroke="#448ead" stroke-width="1.88" transform="matrix(-.0960022 -.558857 -.558857 .0960022 359.301 165.281)"/><path d="m74.855 90.46h258.89" fill="none" stroke="#18709c" stroke-width=".94" transform="matrix(.435647 -.362973 -.362973 -.435647 298.394 253.861)"/><path d="m-91.223-1.715h196.516" fill="none" stroke="#18709c" stroke-width=".94" transform="matrix(-.564489 .0537568 .0537568 .564489 246.768 193.154)"/><path d="m41.118-60.31h136.094" fill="none" stroke="#448ead" stroke-width="1.88" transform="matrix(.0359574 .565902 .565902 -.0359574 330.821 161.844)"/><path d="m-137.746 169.485h350.622" fill="none" stroke="#18709c" stroke-width=".94" transform="matrix(-.217633 -.523616 -.523616 .217633 356.937 78.2702)"/><path d="m98.313 60.065h427.584" fill="none" stroke="#18709c" stroke-width=".94" transform="matrix(.549704 -.139153 -.139153 -.549704 252.485 233.98)"/><path d="m98.602-37.16h326.896" fill="none" stroke="#927b9c" stroke-width="3.77" transform="matrix(.545367 .155284 .155284 -.545367 250.166 151.705)"/><path d="m-189.89 167.115h381.07" fill="none" stroke="#18709c" stroke-width=".94" transform="matrix(-.31012 -.474725 -.474725 .31012 318.615 45.3105)"/><path d="m-200.693 137.06h360.396" fill="none" stroke="#18709c" stroke-width=".94" transform="matrix(-.394433 -.407382 -.407382 .394433 274.846 51.4621)"/><path d="m43.471-112.85h297.748" fill="none" stroke="#18709c" stroke-width=".94" transform="matrix(.333257 .458778 .458778 -.333257 335.456 129.73)"/><path d="m-45.362-79.48h200.694" fill="none" stroke="#18709c" stroke-width=".94" transform="matrix(-.281779 .492076 .492076 .281779 324.498 231.999)"/><path d="m22.643 114.825h222.064" fill="none" stroke="#448ead" stroke-width="1.88" transform="matrix(.14721 -.547601 -.547601 -.14721 357.715 216.585)"/><path d="m-213.914 81.18h335.748" fill="none" stroke="#18709c" stroke-width=".94" transform="matrix(-.509674 -.248537 -.248537 .509674 209.32 92.7409)"/><path d="m78.92-81.37h331.2" fill="none" stroke="#83b2c1" stroke-width="2.82" transform="matrix(.478254 .304649 .304649 -.478254 285.215 124.323)"/><path d="m54.848-121.745h384.594" fill="none" stroke="#448ead" stroke-width="1.88" transform="matrix(.419599 .381412 .381412 -.419599 321.591 115.278)"/><path d="m-133.527 143.92h316.334" fill="none" stroke="#18709c" stroke-width=".94" transform="matrix(-.28756 -.48872 -.48872 .28756 330.109 80.6389)"/><path d="m101.984 40.425h378.792" fill="none" stroke="#448ead" stroke-width="1.88" transform="matrix(.558462 -.0982765 -.0982765 -.558462 245.189 219.88)"/><path d="m104.181 25.405h474.598" fill="none" stroke="#448ead" stroke-width="1.88" transform="matrix(.565445 -.0425464 -.0425464 -.565445 240.342 206.08)"/><path d="m-231.911 65.08h346.572" fill="none" stroke="#18709c" stroke-width=".94" transform="matrix(-.534939 -.188092 -.188092 .534939 186.353 108.848)"/><path d="m-133.56 122.12h293.42" fill="none" stroke="#448ead" stroke-width="1.88" transform="matrix(-.354427 -.442628 -.442628 .354427 304.886 84.882)"/><path d="m-17.358 152.56h294.156" fill="none" stroke="#18709c" stroke-width=".94" transform="matrix(.0958836 -.558878 -.558878 -.0958836 385.097 192.209)"/><path d="m69.176 84.525h201.548" fill="none" stroke="#18709c" stroke-width=".94" transform="matrix(.366309 -.432846 -.432846 -.366309 309.417 248.187)"/><path d="m67.441-73.315h212.428" fill="none" stroke="#927b9c" stroke-width="3.77" transform="matrix(.367329 .431981 .431981 -.367329 305.067 131.218)"/><path d="m-46.921-129.895h276.332" fill="none" stroke="#448ead" stroke-width="1.88" transform="matrix(-.0558357 .564288 .564288 .0558357 368.848 221.012)"/><path d="m8.188-141.875h327.804" fill="none" stroke="#448ead" stroke-width="1.88" transform="matrix(.232626 .51713 .51713 -.232626 369.633 150.044)"/><path d="m8.623-118.305h260.964" fill="none" stroke="#448ead" stroke-width="1.88" transform="matrix(.148864 .547154 .547154 -.148864 361.617 164.952)"/><path d="m-68.565 67.565h194.15" fill="none" stroke="#18709c" stroke-width=".94" transform="matrix(-.445923 -.350272 -.350272 .445923 291.261 133.137)"/><path d="m-142.33-47.135h259.3" fill="none" stroke="#18709c" stroke-width=".94" transform="matrix(-.514033 .239391 .239391 .514033 236.291 245.583)"/><path d="m-169.315 32.19h276.37" fill="none" stroke="#448ead" stroke-width="1.88" transform="matrix(-.557993 -.100905 -.100905 .557993 206.941 152.235)"/><path d="m-171.445 12.165h276.37" fill="none" stroke="#448ead" stroke-width="1.88" transform="matrix(-.566734 -.0187325 -.0187325 .566734 201.234 177.176)"/><path d="m91.714 56.685h196.552" fill="none" stroke="#810f7c" stroke-width="6.59" transform="matrix(.49125 -.283216 -.283216 -.49125 269.169 241.103)"/><path d="m-78.516-20.76h187.752" fill="none" stroke="#18709c" stroke-width=".94" transform="matrix(-.540549 .171304 .171304 .540549 259.284 211.954)"/><path d="m-167.607-63.715h291.124" fill="none" stroke="#18709c" stroke-width=".94" transform="matrix(-.494327 .277812 .277812 .494327 233.018 265.341)"/><path d="m-138.807 79.635h264.954" fill="none" stroke="#18709c" stroke-width=".94" transform="matrix(-.475887 -.308334 -.308334 .475887 256.668 106.586)"/><path d="m83.664-94.47h512.942" fill="none" stroke="#18709c" stroke-width=".94" transform="matrix(.520202 .225671 .225671 -.520202 275.967 119.258)"/><path d="m104.796 3.12h370.468" fill="none" stroke="#448ead" stroke-width="1.88" transform="matrix(.566877 .0137143 .0137143 -.566877 238.721 187.613)"/><path d="m97.389-56.115h551.582" fill="none" stroke="#18709c" stroke-width=".94" transform="matrix(.551703 .131002 .131002 -.551703 251.791 143.565)"/><path d="m-140.794-75.96h274.068" fill="none" stroke="#18709c" stroke-width=".94" transform="matrix(-.449424 .345768 .345768 .449424 261.158 270.102)"/><path d="m91.536-76.25h541.408" fill="none" stroke="#18709c" stroke-width=".94" transform="matrix(.539155 .175641 .175641 -.539155 262.21 130.094)"/><path d="m41.851 251.25h67.928" fill="none" stroke="#18709c" stroke-width=".94" transform="matrix(-.118789 .554461 .554461 .118789 151.403 -22.7605)"/><path d="m72.152 253.255h101.126" fill="none" stroke="#18709c" stroke-width=".94" transform="matrix(.446174 .349953 .349953 -.446174 164.921 118.036)"/><path d="m68.657 220.045h93.886" fill="none" stroke="#448ead" stroke-width="1.88" transform="matrix(.566526 -.0242193 -.0242193 -.566526 244.105 194.277)"/><path d="m53.134 257.78h117.022" fill="none" stroke="#18709c" stroke-width=".94" transform="matrix(.416189 -.385129 -.385129 -.416189 354.836 195.702)"/><path d="m234.541 167.385h69.718" fill="none" stroke="#18709c" stroke-width=".94" transform="matrix(-.558764 .0965434 .0965434 .558764 525.848 -22.8607)"/><path d="m252.759 139.545h73.362" fill="none" stroke="#18709c" stroke-width=".94" transform="matrix(-.221212 .522114 .522114 .221212 394.01 -69.5264)"/><path d="m-103.24-30.075h41.57" fill="none" stroke="#18709c" stroke-width=".94" transform="matrix(.227117 .519573 .519573 -.227117 226.313 244.656)"/><path d="m-395.425 75.425h98.09" fill="none" stroke="#18709c" stroke-width=".94" transform="matrix(.560275 -.0873479 -.0873479 -.560275 242.959 160.825)"/><path d="m-401.997 41.485h104.424" fill="none" stroke="#18709c" stroke-width=".94" transform="matrix(.489313 .28655 .28655 -.489313 199.639 288.598)"/><path d="m-405.141 89.705h56.582" fill="none" stroke="#18709c" stroke-width=".94" transform="matrix(.360572 -.437637 -.437637 -.360572 200.165 8.14645)"/><path d="m-417.453 37.335h63.846" fill="none" stroke="#18709c" stroke-width=".94" transform="matrix(.165373 .542393 .542393 -.165373 63.6093 385.704)"/><path d="m111.737-105.07h309.256" fill="none" stroke="#18709c" stroke-width=".94" transform="matrix(.560652 -.0848945 -.0848945 -.560652 231.498 214.876)"/><path d="m98.276-180.76h196.768" fill="none" stroke="#18709c" stroke-width=".94" transform="matrix(.479415 .302819 .302819 -.479415 310.686 147.879)"/><path d="m111.851-149.28h273.968" fill="none" stroke="#18709c" stroke-width=".94" transform="matrix(.560302 .0871778 .0871778 -.560302 253.407 170.905)"/><path d="m112.182-141.225h131.576" fill="none" stroke="#18709c" stroke-width=".94" transform="matrix(.555854 .112093 .112093 -.555854 256.537 173.222)"/><path d="m52.106-11.225h284.398" fill="none" stroke="#18709c" stroke-width=".94" transform="matrix(.322304 -.466538 -.466538 -.322304 281.033 284.989)"/><path d="m102.68-64.79h383.33" fill="none" stroke="#18709c" stroke-width=".94" transform="matrix(.535091 -.187658 -.187658 -.535091 235.962 248.898)"/><path d="m-103.636 329h73.992" fill="none" stroke="#18709c" stroke-width=".94" transform="matrix(-.565879 .0363254 .0363254 .565879 151.266 -178.719)"/><path d="m-154.281 298.945h133.002" fill="none" stroke="#18709c" stroke-width=".94" transform="matrix(-.49507 .276484 .276484 .49507 62.8295 -101.652)"/><path d="m-71.292 305.805h57.294" fill="none" stroke="#18709c" stroke-width=".94" transform="matrix(-.255843 .506046 .506046 .255843 48.8721 -38.4712)"/><path d="m-107.422 284.005h106.574" fill="none" stroke="#18709c" stroke-width=".94" transform="matrix(-.259806 .504023 .504023 .259806 50.8089 -15.9527)"/><path d="m470.082 92.89h57.106" fill="none" stroke="#18709c" stroke-width=".94" transform="matrix(-.411589 .390042 .390042 .411589 690.465 -93.8021)"/><path d="m503.301 77.87h90.868" fill="none" stroke="#18709c" stroke-width=".94" transform="matrix(.366621 .432582 .432582 -.366621 315.009 -61.3882)"/><path d="m-304.735 15.915h133.37" fill="none" stroke="#18709c" stroke-width=".94" transform="matrix(.567001 -.0069302 -.0069302 -.567001 238.816 189.941)"/><path d="m246.648-157.61h205.794" fill="none" stroke="#18709c" stroke-width=".94" transform="matrix(-.38413 .417112 .417112 .38413 636.934 195.706)"/><path d="m354.161-126.13h95.118" fill="none" stroke="#448ead" stroke-width="1.88" transform="matrix(-.209011 .527117 .527117 .209011 616.957 77.7216)"/><path d="m318.457-166.505h171.776" fill="none" stroke="#18709c" stroke-width=".94" transform="matrix(-.0984044 .558439 .558439 .0984044 600.769 76.5896)"/><path d="m365.636-4.335h165.888" fill="none" stroke="#18709c" stroke-width=".94" transform="matrix(.200514 -.530408 -.530408 -.200514 400.834 431.111)"/><path d="m397.569-19.355h202.222" fill="none" stroke="#18709c" stroke-width=".94" transform="matrix(.445452 -.350871 -.350871 -.445452 292.559 368.917)"/><path d="m235.352-118.075h191.006" fill="none" stroke="#83b2c1" stroke-width="2.82" transform="matrix(-.524839 .214668 .214668 .524839 625.317 249.492)"/><path d="m228.87 11.925h236.64" fill="none" stroke="#448ead" stroke-width="1.88" transform="matrix(-.345345 -.449749 -.449749 .345345 560.851 336.86)"/><path d="m400.476-139.23h193.718" fill="none" stroke="#18709c" stroke-width=".94" transform="matrix(.457133 .33551 .33551 -.457133 340.09 40.0332)"/><path d="m398.186-41.64h98.088" fill="none" stroke="#18709c" stroke-width=".94" transform="matrix(.3235 -.46571 -.46571 -.3235 328.243 410.012)"/><path d="m417.645-100.875h225.47" fill="none" stroke="#18709c" stroke-width=".94" transform="matrix(.558971 .0953414 .0953414 -.558971 252.615 141.839)"/><path d="m411.894-121.01h215.092" fill="none" stroke="#18709c" stroke-width=".94" transform="matrix(.52826 .206105 .206105 -.52826 283.802 89.2252)"/><path d="m-161.445 296.575h73.49" fill="none" stroke="#18709c" stroke-width=".94" transform="matrix(-.326228 .463803 .463803 .326228 -10.2279 -15.4944)"/><path d="m-112.938 303.435h66.746" fill="none" stroke="#18709c" stroke-width=".94" transform="matrix(.407699 .394106 .394106 -.407699 106.452 174.598)"/><path d="m-137.755 281.635h93.4" fill="none" stroke="#18709c" stroke-width=".94" transform="matrix(.151838 .546336 .546336 -.151838 47.0414 124.402)"/><path d="m-299.219 69.88h133.408" fill="none" stroke="#18709c" stroke-width=".94" transform="matrix(-.556001 -.111362 -.111362 .556001 -14.6272 87.2199)"/><path d="m-146.358 273.38h91.306" fill="none" stroke="#18709c" stroke-width=".94" transform="matrix(.560605 -.0852055 -.0852055 -.560605 261.36 181.251)"/><path d="m-149.008 251.58h73.626" fill="none" stroke="#18709c" stroke-width=".94" transform="matrix(.518247 .230127 .230127 -.518247 175.345 205.134)"/><path d="m271.079-201.82h121.872" fill="none" stroke="#18709c" stroke-width=".94" transform="matrix(.485516 -.292938 -.292938 -.485516 206.663 305.305)"/><path d="m217.42-193.765h87.46" fill="none" stroke="#18709c" stroke-width=".94" transform="matrix(-.24235 -.512644 -.512644 .24235 350.756 482.301)"/><path d="m107.934-63.765h339.102" fill="none" stroke="#18709c" stroke-width=".94" transform="matrix(-.007876 -.566989 -.566989 .007876 362.093 385.582)"/><path d="m-96.468-194.415h109.226" fill="none" stroke="#18709c" stroke-width=".94" transform="matrix(.487741 -.289218 -.289218 -.487741 179.168 194.904)"/><path d="m120.603 259.785h75.884" fill="none" stroke="#18709c" stroke-width=".94" transform="matrix(-.059108 -.563954 -.563954 .059108 484.495 118.339)"/><path d="m-229.95 138.66h40.87" fill="none" stroke="#18709c" stroke-width=".94" transform="matrix(-.349215 .446751 .446751 .349215 -15.2011 158.144)"/><path d="m346.355-210.715h80.92" fill="none" stroke="#448ead" stroke-width="1.88" transform="matrix(.0367889 .565849 .565849 -.0367889 563.058 84.4452)"/><path d="m300.551-48.545h260.998" fill="none" stroke="#18709c" stroke-width=".94" transform="matrix(.203616 -.529224 -.529224 -.203616 369.679 437.356)"/><path d="m336.921-63.565h288.458" fill="none" stroke="#18709c" stroke-width=".94" transform="matrix(.381202 -.41979 -.41979 -.381202 301.449 405.386)"/><path d="m242.004-162.285h142.642" fill="none" stroke="#83b2c1" stroke-width="2.82" transform="matrix(-.563415 -.0640416 -.0640416 .563415 582.523 395.114)"/><path d="m70.142-218.865h321.546" fill="none" stroke="#18709c" stroke-width=".94" transform="matrix(-.540599 .171147 .171147 .540599 531.945 394.495)"/><path d="m217.383-230.845h188.754" fill="none" stroke="#18709c" stroke-width=".94" transform="matrix(-.435181 .363532 .363532 .435181 635.088 309.615)"/><path d="m167.077-207.275h223.396" fill="none" stroke="#18709c" stroke-width=".94" transform="matrix(-.535146 .187503 .187503 .535146 584.843 367.776)"/><path d="m181.226-32.285h296.868" fill="none" stroke="#83b2c1" stroke-width="2.82" transform="matrix(-.208314 -.527393 -.527393 .208314 477.293 390.484)"/><path d="m383.297-183.44h193.016" fill="none" stroke="#18709c" stroke-width=".94" transform="matrix(.561795 .0769703 .0769703 -.561795 255.353 155.623)"/><path d="m381.735-145.085h262.23" fill="none" stroke="#18709c" stroke-width=".94" transform="matrix(.556425 -.109222 -.109222 -.556425 228.315 249.146)"/><path d="m384.079-165.22h235.662" fill="none" stroke="#18709c" stroke-width=".94" transform="matrix(.566508 -.0246391 -.0246391 -.566508 234.913 204.047)"/><path d="m265.58-88.92h336.19" fill="none" stroke="#18709c" stroke-width=".94" transform="matrix(.14922 -.547057 -.547057 -.14922 371.27 465.989)"/><path d="m308.983-103.94h349.584" fill="none" stroke="#18709c" stroke-width=".94" transform="matrix(.306033 -.47737 -.47737 -.306033 315.368 449.66)"/><path d="m227.937-202.66h176.026" fill="none" stroke="#448ead" stroke-width="1.88" transform="matrix(-.473477 -.312022 -.312022 .473477 504.233 501.047)"/><path d="m77.427-259.24h312.226" fill="none" stroke="#18709c" stroke-width=".94" transform="matrix(-.56627 .029603 .029603 .56627 511.064 478.478)"/><path d="m236.677-271.22h155.416" fill="none" stroke="#18709c" stroke-width=".94" transform="matrix(-.547687 .146891 .146891 .547687 629.01 447.748)"/><path d="m173.305-247.65h216.19" fill="none" stroke="#18709c" stroke-width=".94" transform="matrix(-.566756 -.0180455 -.0180455 .566756 553.297 477.455)"/><path d="m144.924-72.66h374.722" fill="none" stroke="#448ead" stroke-width="1.88" transform="matrix(-.172979 -.540015 -.540015 .172979 445.376 424.8)"/><path d="m385.522-223.815h193.816" fill="none" stroke="#18709c" stroke-width=".94" transform="matrix(.54412 -.159597 -.159597 -.54412 214.054 273.716)"/><path d="m373.376-185.46h284.198" fill="none" stroke="#18709c" stroke-width=".94" transform="matrix(.50294 -.261895 -.261895 -.50294 223.188 338.48)"/><path d="m380.775-205.595h247.52" fill="none" stroke="#18709c" stroke-width=".94" transform="matrix(.52734 -.208448 -.208448 -.52734 215.891 304.924)"/><path d="m-91.703 258.44h49.286" fill="none" stroke="#18709c" stroke-width=".94" transform="matrix(-.264392 .501632 .501632 .264392 53.3175 10.3546)"/><path d="m475.707 58.23h104.606" fill="none" stroke="#448ead" stroke-width="1.88" transform="matrix(.543159 .162839 .162839 -.543159 241.844 104.22)"/><path d="m196.49-40.49h327.39" fill="none" stroke="#18709c" stroke-width=".94" transform="matrix(-.407803 .393999 .393999 .407803 605.793 89.1505)"/><path d="m273.834 89.51h205.372" fill="none" stroke="#18709c" stroke-width=".94" transform="matrix(-.559889 -.0897899 -.0897899 .559889 671.065 124.527)"/><path d="m383.23-61.645h286.87" fill="none" stroke="#18709c" stroke-width=".94" transform="matrix(.192743 .53328 .53328 -.192743 468.72 -66.195)"/><path d="m433.175-23.29h253.07" fill="none" stroke="#18709c" stroke-width=".94" transform="matrix(.36657 .432625 .432625 -.36657 360.998 -45.884)"/><path d="m412.263-43.425h273.014" fill="none" stroke="#18709c" stroke-width=".94" transform="matrix(.294349 .484662 .484662 -.294349 409.408 -62.5346)"/><path d="m215.578-55.51h389.414" fill="none" stroke="#18709c" stroke-width=".94" transform="matrix(-.488755 .287501 .287501 .488755 687.853 132.241)"/><path d="m271.934 74.49h309.372" fill="none" stroke="#18709c" stroke-width=".94" transform="matrix(-.555329 -.114666 -.114666 .555329 726.083 156.905)"/><path d="m456.882-76.665h239.766" fill="none" stroke="#18709c" stroke-width=".94" transform="matrix(-.00636184 .567008 .567008 .00636184 612.905 -91.4786)"/><path d="m522.343-38.31h174.934" fill="none" stroke="#18709c" stroke-width=".94" transform="matrix(.20551 .528492 .528492 -.20551 479.428 -116.838)"/><path d="m495.117-58.445h207.506" fill="none" stroke="#18709c" stroke-width=".94" transform="matrix(.11346 .555576 .555576 -.11346 542.823 -114.617)"/><path d="m-335.435 49.04h68.22" fill="none" stroke="#18709c" stroke-width=".94" transform="matrix(-.056604 .564211 .564211 .056604 23.126 331.019)"/><path d="m-362.04 97.26h67.3" fill="none" stroke="#18709c" stroke-width=".94" transform="matrix(-.513453 -.240633 -.240633 .513453 -92.7046 7.48074)"/><path d="m-391.692 44.89h109.244" fill="none" stroke="#18709c" stroke-width=".94" transform="matrix(-.406424 .39542 .39542 .406424 -107.162 281.177)"/><path d="m220.787 133.61h68.606" fill="none" stroke="#18709c" stroke-width=".94" transform="matrix(.331274 .460213 .460213 -.331274 237.369 42.6946)"/><path d="m60.086-210.81h199.928" fill="none" stroke="#18709c" stroke-width=".94" transform="matrix(-.467471 .32095 .32095 .467471 471.949 358.309)"/><path d="m172.317-222.79h137.156" fill="none" stroke="#18709c" stroke-width=".94" transform="matrix(-.0129404 .566896 .566896 .0129404 504.729 184.244)"/><path d="m151.184-199.22h113.452" fill="none" stroke="#18709c" stroke-width=".94" transform="matrix(-.34537 .449731 .449731 .34537 518.011 279.859)"/><path d="m127.773-24.23h262.044" fill="none" stroke="#83b2c1" stroke-width="2.82" transform="matrix(.0706952 -.562619 -.562619 -.0706952 353.535 349.221)"/><path d="m241.121-175.385h335.638" fill="none" stroke="#18709c" stroke-width=".94" transform="matrix(.56252 .0714807 .0714807 -.56252 253.102 163.153)"/><path d="m241.72-137.03h400.53" fill="none" stroke="#18709c" stroke-width=".94" transform="matrix(.564948 -.0487012 -.0487012 -.564948 232.968 213.404)"/><path d="m242.437-157.165h377.216" fill="none" stroke="#18709c" stroke-width=".94" transform="matrix(.566975 .00882398 .00882398 -.566975 240.132 187.799)"/><path d="m76.757-279.37h163.456" fill="none" stroke="#448ead" stroke-width="1.88" transform="matrix(.560918 .0831195 .0831195 -.560918 262.907 180.129)"/><path d="m76.257-255.8h98.486" fill="none" stroke="#448ead" stroke-width="1.88" transform="matrix(.551114 -.13346 -.13346 -.551114 206.575 212.415)"/><path d="m-34.714-80.81h422.198" fill="none" stroke="#18709c" stroke-width=".94" transform="matrix(.265244 -.501182 -.501182 -.265244 251.448 304.381)"/><path d="m165.804-267.78h81.082" fill="none" stroke="#448ead" stroke-width="1.88" transform="matrix(-.461361 -.329673 -.329673 .461361 362.641 535.004)"/><path d="m57.865-92.79h398.73" fill="none" stroke="#18709c" stroke-width=".94" transform="matrix(.050912 -.564753 -.564753 -.050912 319.076 384.755)"/><path d="m42.007-69.22h364.476" fill="none" stroke="#18709c" stroke-width=".94" transform="matrix(.158331 -.54449 -.54449 -.158331 292.677 341.982)"/><path d="m-387.091 63.32h110.592" fill="none" stroke="#18709c" stroke-width=".94" transform="matrix(-.277542 -.494478 -.494478 .277542 -10.2033 -25.9531)"/><path d="m-376.46 10.95h71.97" fill="none" stroke="#18709c" stroke-width=".94" transform="matrix(-.56326 .0653945 .0653945 .56326 -146.841 201.48)"/><path d="m-158.617-118.45h38.084" fill="none" stroke="#18709c" stroke-width=".94" transform="matrix(-.278875 .493727 .493727 .278875 179.128 360.702)"/><path d="m-151.464-130.695h60.348" fill="none" stroke="#18709c" stroke-width=".94" transform="matrix(.167631 .541699 .541699 -.167631 261.068 309.495)"/><path d="m-189.378 36.755h40.276" fill="none" stroke="#448ead" stroke-width="1.88" transform="matrix(-.0599764 .563862 .563862 .0599764 111.874 263.973)"/><path d="m-420.624 59.17h106.168" fill="none" stroke="#18709c" stroke-width=".94" transform="matrix(-.092719 .559411 .559411 .092719 -36.874 358.159)"/><path d="m212.223-45.385h426.104" fill="none" stroke="#18709c" stroke-width=".94" transform="matrix(.399614 .402302 .402302 -.399614 328.177 28.1012)"/><path d="m243.187-7.03h430.266" fill="none" stroke="#18709c" stroke-width=".94" transform="matrix(.482847 .297315 .297315 -.482847 279.394 55.9177)"/><path d="m229.798-27.165h435.164" fill="none" stroke="#18709c" stroke-width=".94" transform="matrix(.448904 .346444 .346444 -.448904 300.98 39.8085)"/><path d="m-152.661-147.275h44.012" fill="none" stroke="#18709c" stroke-width=".94" transform="matrix(.471153 .315519 .315519 -.471153 272.655 246.938)"/><path d="m557.838-158.185h101.254" fill="none" stroke="#18709c" stroke-width=".94" transform="matrix(.370119 -.429593 -.429593 -.370119 290.582 484.134)"/><path d="m568.879-178.32h57.292" fill="none" stroke="#18709c" stroke-width=".94" transform="matrix(.437563 -.360661 -.360661 -.437563 251.77 430.184)"/><path d="m607.655-139.965h45.83" fill="none" stroke="#18709c" stroke-width=".94" transform="matrix(-.270715 .498249 .498249 .270715 836.718 -5.33241)"/><path d="m574.511-107.88h105.558" fill="none" stroke="#18709c" stroke-width=".94" transform="matrix(-.0822972 .561039 .561039 .0822972 706.565 -90.2921)"/><path d="m605.978-87.745h64.504" fill="none" stroke="#18709c" stroke-width=".94" transform="matrix(.0576674 .564103 .564103 -.0576674 613.312 -123.741)"/><path d="m528.714-126.1h152.942" fill="none" stroke="#18709c" stroke-width=".94" transform="matrix(-.220713 .522325 .522325 .220713 781.319 -25.1761)"/><path d="m257.853 25.055h394.374" fill="none" stroke="#18709c" stroke-width=".94" transform="matrix(-.517362 -.23211 -.23211 .517362 737.978 270.041)"/><path d="m236.366-104.945h404.678" fill="none" stroke="#18709c" stroke-width=".94" transform="matrix(-.549965 .138118 .138118 .549965 743.247 248.223)"/><path d="m549.508-6.225h114.044" fill="none" stroke="#18709c" stroke-width=".94" transform="matrix(-.282616 -.491595 -.491595 .282616 750.999 495.048)"/><path d="m454.843 8.795h203.174" fill="none" stroke="#18709c" stroke-width=".94" transform="matrix(-.438288 -.359779 -.359779 .438288 801.276 382.942)"/><path d="m355.297-153.375h313.796" fill="none" stroke="#18709c" stroke-width=".94" transform="matrix(-.443647 .35315 .35315 .443647 810.55 165.724)"/><path d="m371.7-113h275.74" fill="none" stroke="#18709c" stroke-width=".94" transform="matrix(-.515675 .235833 .235833 .515675 817.085 193.765)"/><path d="m418.454-68.79h217.292" fill="none" stroke="#18709c" stroke-width=".94" transform="matrix(.562887 -.0685277 -.0685277 -.562887 236.192 227.998)"/><path d="m102.969-24.03h533.862" fill="none" stroke="#18709c" stroke-width=".94" transform="matrix(.563048 .0671919 .0671919 -.563048 241.808 166.833)"/><path d="m470.722-28.51h168.716" fill="none" stroke="#18709c" stroke-width=".94" transform="matrix(-.536873 -.182498 -.182498 .536873 846.274 324.365)"/><path d="m104.85-12.4c11.04 0 20 8.96 20 20 0 11.05-8.96 20-20 20-11.05 0-20-8.95-20-20 0-11.04 8.95-20 20-20" fill="#84e4f1" fill-rule="nonzero" stroke="#40afff" stroke-width=".94" transform="matrix(0 -.567043 -.567043 0 302.479 246.736)"/><path d="m82.93 279.46c2.76 0 5 2.24 5 5s-2.24 5-5 5c-2.77 0-5-2.24-5-5s2.23-5 5-5" fill="#d8ff93" fill-rule="nonzero" stroke="#40afff" stroke-width=".94" transform="matrix(0 -.567043 -.567043 0 447.041 77.3152)"/><path d="m68.71 213.03c2.76 0 5 2.24 5 5.01 0 2.76-2.24 5-5 5-2.77 0-5.01-2.24-5.01-5 0-2.77 2.24-5.01 5.01-5.01" fill="#d8ff93" fill-rule="nonzero" stroke="#40afff" stroke-width=".94" transform="matrix(0 -.567043 -.567043 0 401.309 106.915)"/><path d="m303.75 168.32c2.76 0 5 2.24 5 5 0 2.77-2.24 5-5 5-2.77 0-5-2.23-5-5 0-2.76 2.23-5 5-5" fill="#f3f576" fill-rule="nonzero" stroke="#40afff" stroke-width=".94" transform="matrix(0 -.567043 -.567043 0 509.235 265.551)"/><path d="m-90.78-16.03c2.76 0 5 2.24 5 5s-2.24 5-5 5-5-2.24-5-5 2.24-5 5-5" fill="#aee2ff" fill-rule="nonzero" stroke="#40afff" stroke-width=".94" transform="matrix(0 -.567043 -.567043 0 180.985 146.37)"/><path d="m113.475-133.235c2.78 0 5.02 2.25 5.02 5.02s-2.24 5.02-5.02 5.02c-2.77 0-5.01-2.25-5.01-5.02s2.24-5.02 5.01-5.02" fill="#b99dff" fill-rule="nonzero" stroke="#40afff" stroke-width=".94" transform="matrix(0 -.567043 -.567043 0 230.36 328.643)"/><path d="m-29.72 326.37c2.76 0 5 2.24 5 5s-2.24 5-5 5c-2.77 0-5-2.24-5-5s2.23-5 5-5" fill="#7ea4ff" fill-rule="nonzero" stroke="#40afff" stroke-width=".94" transform="matrix(0 -.567043 -.567043 0 409.764 -13.1622)"/><path d="m519.36 107.53c2.76 0 5 2.24 5 5 0 2.77-2.24 5-5 5s-5-2.23-5-5c0-2.76 2.24-5 5-5" fill="#ffb689" fill-rule="nonzero" stroke="#40afff" stroke-width=".94" transform="matrix(0 -.567043 -.567043 0 597.024 422.282)"/><path d="m419.25-87.02c2.82 0 5.1 2.28 5.1 5.1s-2.28 5.1-5.1 5.1c-2.81 0-5.1-2.28-5.1-5.1s2.29-5.1 5.1-5.1" fill="#b99dff" fill-rule="nonzero" stroke="#40afff" stroke-width=".94" transform="matrix(0 -.567043 -.567043 0 429.996 475.776)"/><path d="m-103.56 321.63c2.76 0 5 2.24 5 5s-2.24 5-5 5-5-2.24-5-5 2.24-5 5-5" fill="#7ea4ff" fill-rule="nonzero" stroke="#40afff" stroke-width=".94" transform="matrix(0 -.567043 -.567043 0 365.206 -52.3449)"/><path d="m-145.84 261.52c2.76 0 5 2.24 5 5s-2.24 5-5 5-5-2.24-5-5 2.24-5 5-5" fill="#7ea4ff" fill-rule="nonzero" stroke="#40afff" stroke-width=".94" transform="matrix(0 -.567043 -.567043 0 307.146 -42.2345)"/><path d="m279.84-238.3c2.76 0 5 2.24 5 5 0 2.77-2.24 5-5 5s-5-2.23-5-5c0-2.76 2.24-5 5-5" fill="#ff4c76" fill-rule="nonzero" stroke="#40afff" stroke-width=".94" transform="matrix(0 -.567043 -.567043 0 265.106 482.564)"/><path d="m5.111-172.329c3.19 0 5.78 2.58 5.78 5.77s-2.59 5.778-5.78 5.778-5.77-2.588-5.77-5.778 2.58-5.77 5.77-5.77" fill="#bbd587" fill-rule="nonzero" stroke="#40afff" stroke-width=".94" transform="matrix(0 -.567043 -.567043 0 147.173 288.936)"/><path d="m162.51 217.04c2.76 0 5 2.24 5 5.01 0 2.76-2.24 5-5 5-2.77 0-5.01-2.24-5.01-5 0-2.77 2.24-5.01 5.01-5.01" fill="#d8ff93" fill-rule="nonzero" stroke="#40afff" stroke-width=".94" transform="matrix(0 -.567043 -.567043 0 456.772 157.83)"/><path d="m-196.93 149.76c2.76 0 5 2.23 5 5 0 2.76-2.24 5-5 5s-5-2.24-5-5c0-2.77 2.24-5 5-5" fill="#4cc78e" fill-rule="nonzero" stroke="#40afff" stroke-width=".94" transform="matrix(0 -.567043 -.567043 0 214.803 -7.83203)"/><path d="m384.185-175.485c2.84 0 5.14 2.3 5.14 5.14s-2.3 5.15-5.14 5.15-5.14-2.31-5.14-5.15 2.3-5.14 5.14-5.14" fill="#ff4c76" fill-rule="nonzero" stroke="#40afff" stroke-width=".94" transform="matrix(0 -.567043 -.567043 0 359.975 506.031)"/><path d="m389.435-256.165c2.8 0 5.07 2.27 5.07 5.07s-2.27 5.08-5.07 5.08-5.07-2.28-5.07-5.08 2.27-5.07 5.07-5.07" fill="#ff4c76" fill-rule="nonzero" stroke="#40afff" stroke-width=".94" transform="matrix(0 -.567043 -.567043 0 317.163 554.797)"/><path d="m-55.57 275.24c2.76 0 5 2.24 5 5s-2.24 5-5 5c-2.77 0-5-2.24-5-5s2.23-5 5-5" fill="#7ea4ff" fill-rule="nonzero" stroke="#40afff" stroke-width=".94" transform="matrix(0 -.567043 -.567043 0 366.113 1.17261)"/><path d="m477.91 68.2c2.79 0 5.05 2.26 5.05 5.05s-2.26 5.05-5.05 5.05-5.05-2.26-5.05-5.05 2.26-5.05 5.05-5.05" fill="#ffb689" fill-rule="nonzero" stroke="#40afff" stroke-width=".94" transform="matrix(0 -.567043 -.567043 0 551.247 421.051)"/><path d="m578.11 38.16c2.79 0 5.05 2.26 5.05 5.05s-2.26 5.05-5.05 5.05-5.05-2.26-5.05-5.05 2.26-5.05 5.05-5.05" fill="#ffb689" fill-rule="nonzero" stroke="#40afff" stroke-width=".94" transform="matrix(0 -.567043 -.567043 0 591.031 494.903)"/><path d="m-222.1 117.56c2.76 0 5 2.24 5 5s-2.24 5-5 5-5-2.24-5-5 2.24-5 5-5" fill="#4cc78e" fill-rule="nonzero" stroke="#40afff" stroke-width=".94" transform="matrix(0 -.567043 -.567043 0 182.272 -3.84572)"/><path d="m-78.55 231.64c2.76 0 5 2.24 5 5s-2.24 5-5 5-5-2.24-5-5 2.24-5 5-5" fill="#7ea4ff" fill-rule="nonzero" stroke="#40afff" stroke-width=".94" transform="matrix(0 -.567043 -.567043 0 328.359 12.865)"/><path d="m154.59 292.52c2.76 0 5 2.24 5 5s-2.24 5-5 5-5-2.24-5-5 2.24-5 5-5" fill="#d8ff93" fill-rule="nonzero" stroke="#40afff" stroke-width=".94" transform="matrix(0 -.567043 -.567043 0 495.081 110.544)"/><path d="m235.05 156.45c2.76 0 5 2.24 5 5s-2.24 5-5 5-5-2.24-5-5 2.24-5 5-5" fill="#f3f576" fill-rule="nonzero" stroke="#40afff" stroke-width=".94" transform="matrix(0 -.567043 -.567043 0 463.548 233.326)"/><path d="m242.46-159.37c2.84 0 5.14 2.3 5.14 5.14s-2.3 5.14-5.14 5.14-5.14-2.3-5.14-5.14 2.3-5.14 5.14-5.14" fill="#ff4c76" fill-rule="nonzero" stroke="#40afff" stroke-width=".94" transform="matrix(0 -.567043 -.567043 0 288.746 416.532)"/><path d="m77.64-272.39c2.76 0 5 2.24 5 5s-2.24 5-5 5c-2.77 0-5-2.24-5-5s2.23-5 5-5" fill="#ff4c76" fill-rule="nonzero" stroke="#40afff" stroke-width=".94" transform="matrix(0 -.567043 -.567043 0 131.119 387.238)"/><path d="m239.33-296.35c2.76 0 5 2.24 5 5s-2.24 5-5 5-5-2.24-5-5 2.24-5 5-5" fill="#ff4c76" fill-rule="nonzero" stroke="#40afff" stroke-width=".94" transform="matrix(0 -.567043 -.567043 0 209.218 492.51)"/><path d="m173.36-249.21c2.76 0 5 2.24 5 5s-2.24 5-5 5-5-2.24-5-5 2.24-5 5-5" fill="#ff4c76" fill-rule="nonzero" stroke="#40afff" stroke-width=".94" transform="matrix(0 -.567043 -.567043 0 198.54 428.372)"/><path d="m-47.83 122.53c2.76 0 5 2.24 5 5s-2.24 5-5 5-5-2.24-5-5 2.24-5 5-5" fill="#deb14c" fill-rule="nonzero" stroke="#40afff" stroke-width=".94" transform="matrix(0 -.567043 -.567043 0 283.909 92.1547)"/><path d="m-130.21-106.87c2.76 0 5 2.24 5 5 0 2.77-2.24 5-5 5s-5-2.23-5-5c0-2.76 2.24-5 5-5" fill="#edadcd" fill-rule="nonzero" stroke="#40afff" stroke-width=".94" transform="matrix(0 -.567043 -.567043 0 107.116 175.521)"/><path d="m-167.11 50.05c3.72 0 6.74 3.02 6.74 6.74 0 3.71-3.02 6.73-6.74 6.73s-6.73-3.02-6.73-6.73c0-3.72 3.01-6.74 6.73-6.74" fill="#ed4fb7" fill-rule="nonzero" stroke="#40afff" stroke-width=".94" transform="matrix(0 -.567043 -.567043 0 176.159 64.6361)"/><path d="m-171.37 9.99c3.72 0 6.73 3.01 6.73 6.73s-3.01 6.74-6.73 6.74-6.74-3.02-6.74-6.74 3.02-6.73 6.74-6.73" fill="#ed4fb7" fill-rule="nonzero" stroke="#40afff" stroke-width=".94" transform="matrix(0 -.567043 -.567043 0 151.022 84.9306)"/><path d="m275.13 100.38c2.98 0 5.4 2.42 5.4 5.4s-2.42 5.39-5.4 5.39-5.39-2.41-5.39-5.39 2.41-5.4 5.39-5.4" fill="#f3f576" fill-rule="nonzero" stroke="#40afff" stroke-width=".94" transform="matrix(0 -.567043 -.567043 0 454.708 287.626)"/><path d="m-74.13-54.12c2.76 0 5 2.24 5 5s-2.24 5-5 5-5-2.24-5-5 2.24-5 5-5" fill="#aee2ff" fill-rule="nonzero" stroke="#40afff" stroke-width=".94" transform="matrix(0 -.567043 -.567043 0 168.827 177.41)"/><path d="m-148.94-140.03c2.76 0 5 2.24 5 5s-2.24 5-5 5-5-2.24-5-5 2.24-5 5-5" fill="#edadcd" fill-rule="nonzero" stroke="#40afff" stroke-width=".94" transform="matrix(0 -.567043 -.567043 0 77.6921 183.704)"/><path d="m-117.51 146.67c2.76 0 5 2.24 5 5s-2.24 5-5 5-5-2.24-5-5 2.24-5 5-5" fill="#deb14c" fill-rule="nonzero" stroke="#40afff" stroke-width=".94" transform="matrix(0 -.567043 -.567043 0 258.086 38.9547)"/><path d="m575.42-201.54c2.76 0 5 2.24 5 5s-2.24 5-5 5-5-2.24-5-5 2.24-5 5-5" fill="#9fffeb" fill-rule="nonzero" stroke="#40afff" stroke-width=".94" transform="matrix(0 -.567043 -.567043 0 453.557 629.326)"/><path d="m475.215-6.365c2.76 0 5 2.24 5 5.01 0 2.76-2.24 5-5 5s-5-2.24-5-5c0-2.77 2.24-5.01 5-5.01" fill="#b99dff" fill-rule="nonzero" stroke="#40afff" stroke-width=".94" transform="matrix(0 -.567043 -.567043 0 507.412 461.83)"/><path d="m641.51-124.83c2.76 0 5 2.24 5 5s-2.24 5-5 5-5-2.24-5-5 2.24-5 5-5" fill="#9fffeb" fill-rule="nonzero" stroke="#40afff" stroke-width=".94" transform="matrix(0 -.567043 -.567043 0 534.53 623.304)"/><path d="m-112.37-164.52c2.76 0 5 2.24 5 5s-2.24 5-5 5-5-2.24-5-5 2.24-5 5-5" fill="#edadcd" fill-rule="nonzero" stroke="#40afff" stroke-width=".94" transform="matrix(0 -.567043 -.567043 0 84.542 218.327)"/><path d="m619.63-165.1c2.76 0 5 2.24 5 5s-2.24 5-5 5-5-2.24-5-5 2.24-5 5-5" fill="#9fffeb" fill-rule="nonzero" stroke="#40afff" stroke-width=".94" transform="matrix(0 -.567043 -.567043 0 499.289 633.732)"/><path d="m-394.84 62.87c2.76 0 5 2.24 5 5s-2.24 5-5 5-5-2.24-5-5 2.24-5 5-5" fill="#ed66df" fill-rule="nonzero" stroke="#40afff" stroke-width=".94" transform="matrix(0 -.567043 -.567043 0 53.3092 -70.7852)"/><path d="m-297.93 76.89c3.37 0 6.1 2.73 6.1 6.09 0 3.37-2.73 6.1-6.1 6.1-3.36 0-6.09-2.73-6.09-6.1 0-3.36 2.73-6.09 6.09-6.09" fill="#ed66df" fill-rule="nonzero" stroke="#40afff" stroke-width=".94" transform="matrix(0 -.567043 -.567043 0 116.835 -24.401)"/><path d="m-304.73 9.01c3.37 0 6.1 2.73 6.1 6.1 0 3.36-2.73 6.09-6.1 6.09-3.36 0-6.09-2.73-6.09-6.09 0-3.37 2.73-6.1 6.09-6.1" fill="#ed66df" fill-rule="nonzero" stroke="#40afff" stroke-width=".94" transform="matrix(0 -.567043 -.567043 0 74.4883 10.234)"/><path d="m-358.86 106.54c2.76 0 5 2.24 5 5s-2.24 5-5 5-5-2.24-5-5 2.24-5 5-5" fill="#ed66df" fill-rule="nonzero" stroke="#40afff" stroke-width=".94" transform="matrix(0 -.567043 -.567043 0 98.4742 -75.1457)"/><path d="m-376.22 1.8c2.76 0 5 2.23 5 5 0 2.76-2.24 5-5 5s-5-2.24-5-5c0-2.77 2.24-5 5-5" fill="#ed66df" fill-rule="nonzero" stroke="#40afff" stroke-width=".94" transform="matrix(0 -.567043 -.567043 0 29.2383 -25.5975)"/><path d="m-88.83-227.27c2.76 0 5 2.24 5 5s-2.24 5-5 5-5-2.24-5-5 2.24-5 5-5" fill="#bbd587" fill-rule="nonzero" stroke="#40afff" stroke-width=".94" transform="matrix(0 -.567043 -.567043 0 62.3082 267.258)"/><path d="m634.955-60.705c2.79 0 5.05 2.26 5.05 5.05 0 2.78-2.26 5.04-5.05 5.04s-5.05-2.26-5.05-5.04c0-2.79 2.26-5.05 5.05-5.05" fill="#b99dff" fill-rule="nonzero" stroke="#40afff" stroke-width=".94" transform="matrix(0 -.567043 -.567043 0 567.201 583.2)"/><path d="m-109.257 85.205h185.894" fill="none" stroke="#5297b2" stroke-width="2.74" transform="matrix(.102369 -.671387 -.671387 -.102369 987.596 109.484)"/><path d="m-56.153-95.64h332.186" fill="none" stroke="#18709c" stroke-width=".91" transform="matrix(.573518 .363754 .363754 -.573518 986.2 139.69)"/><path d="m-49.175-74.565h263.27" fill="none" stroke="#8a83bb" stroke-width="7.31" transform="matrix(.581869 .350241 .350241 -.581869 973.935 147.951)"/><path d="m-409.539-44.735h383.038" fill="none" stroke="#18709c" stroke-width=".91" transform="matrix(-.665604 .134947 .134947 .665604 652.652 259.157)"/><path d="m-359.518 23.29h331.926" fill="none" stroke="#297ca3" stroke-width="1.83" transform="matrix(-.667981 -.122642 -.122642 .667981 681.911 114.466)"/><path d="m-252.404-39.275h226.868" fill="none" stroke="#7ab3c2" stroke-width="3.65" transform="matrix(-.650504 .195151 .195151 .650504 762.681 248.921)"/><path d="m-306.091-73.065h291.752" fill="none" stroke="#18709c" stroke-width=".91" transform="matrix(-.604746 .309066 .309066 .604746 756.681 312.903)"/><path d="m-57.17 84.15h334.12" fill="none" stroke="#18709c" stroke-width=".91" transform="matrix(.569995 -.36925 -.36925 -.569995 982.865 200.97)"/><path d="m-45.882 64.745h343.384" fill="none" stroke="#84b0c6" stroke-width="4.57" transform="matrix(.617589 -.282529 -.282529 -.617589 965.835 201.138)"/><path d="m-323.992-18.33h294.134" fill="none" stroke="#5297b2" stroke-width="2.74" transform="matrix(-.677012 .0537989 .0537989 .677012 700.846 203.955)"/><path d="m-351.866-64.135h331.812" fill="none" stroke="#18709c" stroke-width=".91" transform="matrix(-.637121 .235195 .235195 .637121 710.109 297.734)"/><path d="m-30.54.135h211.42" fill="none" stroke="#810f7c" stroke-width="10.05" transform="matrix(.677733 -.0437838 -.0437838 -.677733 939.91 172.869)"/><path d="m-86.988 47.78h109.006" fill="none" stroke="#84b0c6" stroke-width="4.57" transform="matrix(-.0269774 -.67861 -.67861 .0269774 949.284 113.795)"/><path d="m-424.257-10.515h393.974" fill="none" stroke="#18709c" stroke-width=".91" transform="matrix(-.679018 .0132218 .0132218 .679018 631.267 186.864)"/><path d="m-245.011 31.39h221.442" fill="none" stroke="#297ca3" stroke-width="1.83" transform="matrix(-.637738 -.233516 -.233516 .637738 770.284 96.8824)"/><path d="m-34.886 34.315h372.612" fill="none" stroke="#87a6c6" stroke-width="5.48" transform="matrix(.662501 -.14944 -.14944 -.662501 947.446 191.635)"/><path d="m-98.544-82.145h151.698" fill="none" stroke="#84b0c6" stroke-width="4.57" transform="matrix(.0682735 .675706 .675706 -.0682735 981.44 235.094)"/><path d="m-76.839-106.52h260.798" fill="none" stroke="#5297b2" stroke-width="2.74" transform="matrix(.436865 .519989 .519989 -.436865 1008.16 167.535)"/><path d="m-32.134-32.43h367.268" fill="none" stroke="#8a83bb" stroke-width="7.31" transform="matrix(.672436 .0952328 .0952328 -.672436 943.903 155.368)"/><path d="m-36.524-56.22h401.808" fill="none" stroke="#8a9bc6" stroke-width="6.39" transform="matrix(.658175 .167468 .167468 -.658175 952.66 143.229)"/><path d="m-73.745 71.145h182.9" fill="none" stroke="#84b0c6" stroke-width="4.57" transform="matrix(.356653 -.57796 -.57796 -.356653 986.627 156.867)"/><path d="m-64.589-65.085h133.808" fill="none" stroke="#8a83bb" stroke-width="7.31" transform="matrix(.331278 .59287 .59287 -.331278 979.19 190.847)"/><path d="m420.386-.32h60.228" fill="none" stroke="#297ca3" stroke-width="1.83" transform="matrix(.341894 .586812 .586812 -.341894 1091.92 -94.6726)"/><path d="m391.339-25.93h104.582" fill="none" stroke="#18709c" stroke-width=".91" transform="matrix(.107668 .670557 .670557 -.107668 1210.71 -113.083)"/><path d="m180.315 16.325h255.37" fill="none" stroke="#297ca3" stroke-width="1.83" transform="matrix(-.677313 .049865 .049865 .677313 1356.77 132.076)"/><path d="m315.078-60.63h182.234" fill="none" stroke="#18709c" stroke-width=".91" transform="matrix(-.217234 .643466 .643466 .217234 1342.92 -37.4469)"/><path d="m432.275-51.95h53.03" fill="none" stroke="#18709c" stroke-width=".91" transform="matrix(-.175963 .655955 .655955 .175963 1366.19 -86.9443)"/><path d="m179.691-9.695h286.938" fill="none" stroke="#297ca3" stroke-width="1.83" transform="matrix(-.67456 -.0787933 -.0787933 .67456 1376.5 208.165)"/><path d="m346.52-86.65h149.67" fill="none" stroke="#18709c" stroke-width=".91" transform="matrix(-.402081 .547331 .547331 .402081 1442.8 32.6461)"/><path d="m136.4-195.48h114.84" fill="none" stroke="#297ca3" stroke-width="1.83" transform="matrix(-.666843 .128685 .128685 .666843 1225.83 407.751)"/><path d="m216.111-121.39h151.298" fill="none" stroke="#297ca3" stroke-width="1.83" transform="matrix(.37311 -.567476 -.567476 -.37311 960.201 372.295)"/><path d="m237.427-145.18h134.426" fill="none" stroke="#297ca3" stroke-width="1.83" transform="matrix(.550079 -.398312 -.398312 -.550079 921.29 309.658)"/><path d="m152.123-31.975h326.174" fill="none" stroke="#18709c" stroke-width=".91" transform="matrix(.499592 -.460052 -.460052 -.499592 981.685 320.332)"/><path d="m168.727-58.375h293.126" fill="none" stroke="#18709c" stroke-width=".91" transform="matrix(.556291 -.389589 -.389589 -.556291 955.791 299.584)"/><path d="m183.303-84.395h294.294" fill="none" stroke="#18709c" stroke-width=".91" transform="matrix(.624054 -.267949 -.267949 -.624054 935.39 262.772)"/><path d="m188.089-163.525h69.262" fill="none" stroke="#18709c" stroke-width=".91" transform="matrix(.538908 .4133 .4133 -.538908 1038.62 100.46)"/><path d="m92.691-3.14h291.798" fill="none" stroke="#5297b2" stroke-width="2.74" transform="matrix(.20179 -.648475 -.648475 -.20179 1051.65 325.797)"/><path d="m191.202-110.005h264.756" fill="none" stroke="#18709c" stroke-width=".91" transform="matrix(.658432 -.166455 -.166455 -.658432 928.19 225.718)"/><path d="m112.895-67.75h150.11" fill="none" stroke="#8a9bc6" stroke-width="6.39" transform="matrix(-.0659648 -.675935 -.675935 .0659648 1034.05 347.102)"/><path d="m-87.576-20.105h335.742" fill="none" stroke="#297ca3" stroke-width="1.83" transform="matrix(-.465027 -.494964 -.494964 .465027 1021.72 232.325)"/><path d="m135.319-33.57h257.762" fill="none" stroke="#297ca3" stroke-width="1.83" transform="matrix(.363389 -.573749 -.573749 -.363389 1003.96 331.763)"/><path d="m-15.343-150.03h210.856" fill="none" stroke="#18709c" stroke-width=".91" transform="matrix(-.677389 .0488289 .0488289 .677389 1069.33 368.701)"/><path d="m123.255-174.405h86.17" fill="none" stroke="#5297b2" stroke-width="2.74" transform="matrix(-.455547 .503703 .503703 .455547 1216.39 283.689)"/><path d="m183.398-100.315h161.764" fill="none" stroke="#84b0c6" stroke-width="4.57" transform="matrix(.579713 -.353798 -.353798 -.579713 930.585 273.055)"/><path d="m193.211-124.105h167.898" fill="none" stroke="#84b0c6" stroke-width="4.57" transform="matrix(.662732 -.148411 -.148411 -.662732 925.929 212.749)"/><path d="m195.212-144.705h181.866" fill="none" stroke="#18709c" stroke-width=".91" transform="matrix(.678937 .0168418 .0168418 -.678937 942.295 164.789)"/><path d="m-453.546-14.765h144.582" fill="none" stroke="#18709c" stroke-width=".91" transform="matrix(.22984 -.639072 -.639072 -.22984 759.062 -67.4371)"/><path d="m-450.418-48.57h70.896" fill="none" stroke="#18709c" stroke-width=".91" transform="matrix(-.17722 -.655616 -.655616 .17722 552.589 -60.8891)"/><path d="m-438.249 19.455h95.488" fill="none" stroke="#18709c" stroke-width=".91" transform="matrix(-.479588 .480869 .480869 .479588 477.951 334.817)"/><path d="m-405.908-77.33h158.476" fill="none" stroke="#18709c" stroke-width=".91" transform="matrix(-.677532 .0467973 .0467973 .677532 500.231 289.778)"/><path d="m-385.235-9.305h166.06" fill="none" stroke="#297ca3" stroke-width="1.83" transform="matrix(-.446482 -.511755 -.511755 .446482 594.866 25.3973)"/><path d="m-308.779-105.66h79.828" fill="none" stroke="#18709c" stroke-width=".91" transform="matrix(-.36149 .574947 .574947 .36149 720.756 434.115)"/><path d="m-347.771-96.73h106.322" fill="none" stroke="#18709c" stroke-width=".91" transform="matrix(-.600311 .317594 .317594 .600311 593.578 386.907)"/><path d="m-428.786-43.11h185.732" fill="none" stroke="#18709c" stroke-width=".91" transform="matrix(-.645757 -.210328 -.210328 .645757 485.669 156.042)"/><path d="m-343.105-130.52h54.5" fill="none" stroke="#18709c" stroke-width=".91" transform="matrix(-.641643 -.222562 -.222562 .641643 493.571 271.67)"/><path d="m276.694 107.335h163.732" fill="none" stroke="#18709c" stroke-width=".91" transform="matrix(.635624 .239209 .239209 -.635624 929.728 79.136)"/><path d="m-3.765 156.63h287.17" fill="none" stroke="#18709c" stroke-width=".91" transform="matrix(-.672216 -.0967741 -.0967741 .672216 1143.9 -28.5546)"/><path d="m-35.557 119.205h318.404" fill="none" stroke="#18709c" stroke-width=".91" transform="matrix(-.675279 .0723719 .0723719 .675279 1098.64 -.824377)"/><path d="m-413.472-56.385h97.694" fill="none" stroke="#18709c" stroke-width=".91" transform="matrix(-.571367 .367123 .367123 .571367 504.53 373.951)"/><path d="m-384.979 11.64h89.638" fill="none" stroke="#297ca3" stroke-width="1.83" transform="matrix(-.251993 -.630665 -.630665 .251993 630.402 -55.7873)"/><path d="m-328.926-50.925h86.702" fill="none" stroke="#5297b2" stroke-width="2.74" transform="matrix(.594617 .328132 .328132 -.594617 932.369 267.589)"/><path d="m-364.049-84.715h114.458" fill="none" stroke="#18709c" stroke-width=".91" transform="matrix(.198301 .649551 .649551 -.198301 847.292 409.608)"/><path d="m-379.253-75.785h93.376" fill="none" stroke="#18709c" stroke-width=".91" transform="matrix(-.131429 .666308 .666308 .131429 720.725 452.598)"/><path d="m-424.823-22.165h101.896" fill="none" stroke="#18709c" stroke-width=".91" transform="matrix(-.671109 -.104176 -.104176 .671109 432.662 160.558)"/><path d="m363.441-112.26h102.088" fill="none" stroke="#18709c" stroke-width=".91" transform="matrix(-.498079 .461689 .461689 .498079 1479.57 110.37)"/><path d="m-403.59 141.495h111.34" fill="none" stroke="#18709c" stroke-width=".91" transform="matrix(-.599976 -.318227 -.318227 .599976 539.793 -122.128)"/><path d="m-311.971 54.365h294.882" fill="none" stroke="#297ca3" stroke-width="1.83" transform="matrix(.618202 .281187 .281187 -.618202 914.484 212.529)"/><path d="m-370.287 84.335h85.044" fill="none" stroke="#18709c" stroke-width=".91" transform="matrix(-.463579 .496321 .496321 .463579 523.396 235.883)"/><path d="m-370.246 21.77h194.132" fill="none" stroke="#18709c" stroke-width=".91" transform="matrix(.178837 .655177 .655177 -.178837 788.86 337.668)"/><path d="m-384.879 42.715h147.488" fill="none" stroke="#297ca3" stroke-width="1.83" transform="matrix(-.114152 .669484 .669484 .114152 664.378 343.993)"/><path d="m-306.478 92.435h75.956" fill="none" stroke="#297ca3" stroke-width="1.83" transform="matrix(.540774 .410856 .410856 -.540774 864.668 267.103)"/><path d="m175.727 42.725h264.386" fill="none" stroke="#18709c" stroke-width=".91" transform="matrix(.653803 -.183796 -.183796 -.653803 955.454 225.09)"/><path d="m124.473 90.965h181.814" fill="none" stroke="#18709c" stroke-width=".91" transform="matrix(.259387 -.627661 -.627661 -.259387 1087.3 266.58)"/><path d="m149.209 71.56h164.182" fill="none" stroke="#297ca3" stroke-width="1.83" transform="matrix(.418951 -.534527 -.534527 -.418951 1038.23 274.595)"/><path d="m174.23-35.305h284.12" fill="none" stroke="#297ca3" stroke-width="1.83" transform="matrix(.648407 .202009 .202009 -.648407 956.652 106.77)"/><path d="m154.098-70.005h249.514" fill="none" stroke="#297ca3" stroke-width="1.83" transform="matrix(.534549 .418924 .418924 -.534549 1009.45 62.8819)"/><path d="m31.846 77.96h182.698" fill="none" stroke="#5297b2" stroke-width="2.74" transform="matrix(-.427231 -.527933 -.527933 .427231 1117.26 148.364)"/><path d="m-39.222 138.61h293.894" fill="none" stroke="#18709c" stroke-width=".91" transform="matrix(.658016 -.168092 -.168092 -.658016 965.373 184.757)"/><path d="m-44.722 54.595h235.454" fill="none" stroke="#7ab3c2" stroke-width="3.65" transform="matrix(.621043 .274856 .274856 -.621043 929.034 146.34)"/><path d="m-39.822 125.605h110.724" fill="none" stroke="#297ca3" stroke-width="1.83" transform="matrix(.615699 -.286627 -.286627 -.615699 976.786 166.063)"/><path d="m-357.341 61.36h119.632" fill="none" stroke="#18709c" stroke-width=".91" transform="matrix(-.672891 .0919668 .0919668 .672891 531.89 113.98)"/><path d="m-313.76-1.205h141.64" fill="none" stroke="#18709c" stroke-width=".91" transform="matrix(-.0448802 .677662 .677662 .0448802 764.72 335.082)"/><path d="m-346.392 19.74h130.994" fill="none" stroke="#297ca3" stroke-width="1.83" transform="matrix(-.442089 .515555 .515555 .442089 614.671 292.262)"/><path d="m327.457 50.505h113.586" fill="none" stroke="#297ca3" stroke-width="1.83" transform="matrix(.610945 .296624 .296624 -.610945 951.023 52.1562)"/><path d="m315.91 24.485h167" fill="none" stroke="#297ca3" stroke-width="1.83" transform="matrix(.538844 .413385 .413385 -.538844 985.714 1.03303)"/><path d="m226.759 125.145h129.742" fill="none" stroke="#18709c" stroke-width=".91" transform="matrix(-.434784 -.52173 -.52173 .434784 1329.95 182.328)"/><path d="m267.777 105.74h79.546" fill="none" stroke="#8a9bc6" stroke-width="6.39" transform="matrix(-.43731 -.519615 -.519615 .43731 1338.11 211.332)"/><path d="m295.75-1.125h193.58" fill="none" stroke="#18709c" stroke-width=".91" transform="matrix(.416652 .536322 .536322 -.416652 1043.44 -40.6541)"/><path d="m173.35 41.13h167.12" fill="none" stroke="#8a9bc6" stroke-width="6.39" transform="matrix(-.61973 .277802 .277802 .61973 1262.07 44.7855)"/><path d="m-35.142 88.775h368.794" fill="none" stroke="#18709c" stroke-width=".91" transform="matrix(-.677333 -.0495924 -.0495924 .677333 1146.66 56.5588)"/><path d="m241.824-35.825h226.562" fill="none" stroke="#18709c" stroke-width=".91" transform="matrix(.131566 .666281 .666281 -.131566 1158.12 -47.4042)"/><path d="m60.751 112.14h277.388" fill="none" stroke="#297ca3" stroke-width="1.83" transform="matrix(-.654763 -.180346 -.180346 .654763 1226.06 55.9628)"/><path d="m-18.871-181.985h160.112" fill="none" stroke="#18709c" stroke-width=".91" transform="matrix(.646901 .206783 .206783 -.646901 979.402 162.795)"/><path d="m318.292-16.24h132.076" fill="none" stroke="#18709c" stroke-width=".91" transform="matrix(.524598 -.43132 -.43132 -.524598 992.191 337.857)"/><path d="m331.432-42.26h136.116" fill="none" stroke="#18709c" stroke-width=".91" transform="matrix(.660304 -.158864 -.158864 -.660304 940.612 233.839)"/><path d="m207.117 38.995h201.026" fill="none" stroke="#18709c" stroke-width=".91" transform="matrix(-.173581 -.656589 -.656589 .173581 1227.73 338.313)"/><path d="m332.534-67.87h120.172" fill="none" stroke="#18709c" stroke-width=".91" transform="matrix(.670257 .109524 .109524 -.670257 950.722 127.18)"/><path d="m174.004-25.615h165.972" fill="none" stroke="#7ab3c2" stroke-width="3.65" transform="matrix(-.624671 -.266506 -.266506 .624671 1268.04 271.465)"/><path d="m266.495 8.565h133.49" fill="none" stroke="#297ca3" stroke-width="1.83" transform="matrix(-.00081402 -.679146 -.679146 .00081402 1172.2 390.073)"/><path d="m-22.025-107.895h362.3" fill="none" stroke="#297ca3" stroke-width="1.83" transform="matrix(-.65307 .186385 .186385 .65307 1171.9 283.659)"/><path d="m112.573-132.27h245.614" fill="none" stroke="#84b0c6" stroke-width="4.57" transform="matrix(-.541627 .409732 .409732 .541627 1281.34 234.607)"/><path d="m319.147-81.97h54.106" fill="none" stroke="#8a83bb" stroke-width="7.31" transform="matrix(.323345 .597234 .597234 -.323345 1111.93 -8.01886)"/><path d="m305.702-102.57h98.966" fill="none" stroke="#18709c" stroke-width=".91" transform="matrix(.300095 .609248 .609248 -.300095 1136.92 -7.93801)"/><path d="m30.324 45.395h338.402" fill="none" stroke="#18709c" stroke-width=".91" transform="matrix(-.537033 -.415734 -.415734 .537033 1201.33 197.319)"/><path d="m321.221-40.03h151.978" fill="none" stroke="#18709c" stroke-width=".91" transform="matrix(.340784 -.587457 -.587457 -.340784 1050.68 416.467)"/><path d="m345.912-66.05h132.916" fill="none" stroke="#18709c" stroke-width=".91" transform="matrix(.544577 -.405802 -.405802 -.544577 968.487 345.807)"/><path d="m193.545 15.205h253.93" fill="none" stroke="#18709c" stroke-width=".91" transform="matrix(-.206314 -.64705 -.64705 .206314 1233.44 363.501)"/><path d="m356.986-91.66h97.028" fill="none" stroke="#18709c" stroke-width=".91" transform="matrix(.64983 -.197385 -.197385 -.64983 933.593 252.305)"/><path d="m164.351-49.405h211.038" fill="none" stroke="#7ab3c2" stroke-width="3.65" transform="matrix(-.574176 -.362714 -.362714 .574176 1260.11 329.384)"/><path d="m254.662-15.225h182.916" fill="none" stroke="#297ca3" stroke-width="1.83" transform="matrix(-.0962381 -.672293 -.672293 .0962381 1197.94 414.078)"/><path d="m-16.858-131.685h377.726" fill="none" stroke="#18709c" stroke-width=".91" transform="matrix(-.672717 .0932257 .0932257 .672717 1184.6 331.563)"/><path d="m126.559-156.06h243.402" fill="none" stroke="#5297b2" stroke-width="2.74" transform="matrix(-.618425 .280696 .280696 .618425 1305.74 302.392)"/><path d="m345.591-126.36h44.948" fill="none" stroke="#18709c" stroke-width=".91" transform="matrix(.271517 .62251 .62251 -.271517 1168.49 -8.03762)"/><path d="m18.149 21.605h388.512" fill="none" stroke="#18709c" stroke-width=".91" transform="matrix(-.512796 -.445286 -.445286 .512796 1202.59 238.407)"/><path d="m-5.091 163.03h73.612" fill="none" stroke="#297ca3" stroke-width="1.83" transform="matrix(-.627641 -.259434 -.259434 .627641 1023.54 -35.2393)"/><path d="m64.817 161.975h186.196" fill="none" stroke="#18709c" stroke-width=".91" transform="matrix(.672487 -.0948711 -.0948711 -.672487 956.216 183.481)"/><path d="m65.541 142.57h216.588" fill="none" stroke="#297ca3" stroke-width="1.83" transform="matrix(.677959 .0401363 .0401363 -.677959 934.282 162.432)"/><path d="m21.504-48.895h427.282" fill="none" stroke="#18709c" stroke-width=".91" transform="matrix(.636403 -.237131 -.237131 -.636403 938.254 227.428)"/><path d="m29.54-74.915h441.53" fill="none" stroke="#18709c" stroke-width=".91" transform="matrix(.662502 -.149433 -.149433 -.662502 932.769 208.229)"/><path d="m30.697-154.045h223.756" fill="none" stroke="#18709c" stroke-width=".91" transform="matrix(.653327 .185481 .185481 -.653327 972.052 147.111)"/><path d="m34.391-132.97h161.408" fill="none" stroke="#7ab3c2" stroke-width="3.65" transform="matrix(.674444 .0797771 .0797771 -.674444 950.947 161.022)"/><path d="m-41.441 25.745h367.932" fill="none" stroke="#18709c" stroke-width=".91" transform="matrix(.397134 -.55093 -.55093 -.397134 994.175 240.839)"/><path d="m33.689-100.525h419.492" fill="none" stroke="#18709c" stroke-width=".91" transform="matrix(.675063 -.0743594 -.0743594 -.675063 933.317 188.09)"/><path d="m10.022-58.27h195.566" fill="none" stroke="#7ab3c2" stroke-width="3.65" transform="matrix(.506011 -.452982 -.452982 -.506011 932.068 228.501)"/><path d="m-117.958-10.625h236.216" fill="none" stroke="#18709c" stroke-width=".91" transform="matrix(-.200107 -.648997 -.648997 .200107 933.034 179.018)"/><path d="m4.855-24.09h358.4" fill="none" stroke="#5297b2" stroke-width="2.74" transform="matrix(.56509 -.376714 -.376714 -.56509 951.716 241.662)"/><path d="m-20.334-140.55h60.548" fill="none" stroke="#297ca3" stroke-width="1.83" transform="matrix(-.561049 .382706 .382706 .561049 1005.91 340.084)"/><path d="m20.294-164.925h131.802" fill="none" stroke="#5297b2" stroke-width="2.74" transform="matrix(.52811 .427012 .427012 -.52811 1023.24 157.682)"/><path d="m31.418-90.835h305.434" fill="none" stroke="#84b0c6" stroke-width="4.57" transform="matrix(.663439 -.14522 -.14522 -.663439 929.499 197.745)"/><path d="m34.708-114.625h324.614" fill="none" stroke="#84b0c6" stroke-width="4.57" transform="matrix(.678132 -.037094 -.037094 -.678132 935.746 177.003)"/><path d="m34.548-135.225h342.904" fill="none" stroke="#18709c" stroke-width=".91" transform="matrix(.677554 .046484 .046484 -.677554 946.412 160.218)"/><path d="m-86.757 12.74h274.194" fill="none" stroke="#297ca3" stroke-width="1.83" transform="matrix(.0762387 -.674854 -.674854 -.0762387 978.746 195.869)"/><path d="m55.701 110.925h154.348" fill="none" stroke="#297ca3" stroke-width="1.83" transform="matrix(-.590887 -.334802 -.334802 .590887 1145.69 73.1867)"/><path d="m-35.565 87.56h236.5" fill="none" stroke="#297ca3" stroke-width="1.83" transform="matrix(-.673893 -.0843119 -.0843119 .673893 1059.06 58.0776)"/><path d="m155.983 39.915h68.714" fill="none" stroke="#87a6c6" stroke-width="5.48" transform="matrix(-.191349 .651633 .651633 .191349 1079.48 10.8007)"/><path d="m189.22 104.525h103.52" fill="none" stroke="#297ca3" stroke-width="1.83" transform="matrix(.537436 -.415214 -.415214 -.537436 1017.35 254.824)"/><path d="m-10.782-25.305h256.534" fill="none" stroke="#18709c" stroke-width=".91" transform="matrix(.437006 -.51987 -.51987 -.437006 955.09 236.783)"/><path d="m159.955-16.44h239.19" fill="none" stroke="#18709c" stroke-width=".91" transform="matrix(-.451627 -.507221 -.507221 .451627 1247.57 329.962)"/><path d="m173.201 7.35h186.938" fill="none" stroke="#18709c" stroke-width=".91" transform="matrix(-.484281 -.476143 -.476143 .484281 1253.55 288)"/><path d="m200.009 74.095h133.162" fill="none" stroke="#18709c" stroke-width=".91" transform="matrix(-.679033 .0123933 .0123933 .679033 1300.96 65.6401)"/><path d="m89.938-34.785h215.384" fill="none" stroke="#297ca3" stroke-width="1.83" transform="matrix(.0150723 -.678979 -.678979 -.0150723 1047.42 326.865)"/><path d="m-36.997 33.1h243.694" fill="none" stroke="#7ab3c2" stroke-width="3.65" transform="matrix(.641933 -.221725 -.221725 -.641933 950.295 187.16)"/><path d="m-30.32-26.68c11.05 0 20 8.96 20 20 0 11.05-8.95 20-20 20-11.04 0-20-8.95-20-20 0-11.04 8.96-20 20-20" fill="#84e4f1" fill-rule="nonzero" stroke="#000" stroke-width=".91" transform="matrix(0 -.679146 -.679146 0 914.67 153.523)"/><path d="m-2.3 172.09c2.77 0 5 2.239 5 5 0 2.76-2.23 5-5 5-2.76 0-5-2.24-5-5 0-2.761 2.24-5 5-5" fill="#deb14c" fill-rule="nonzero" stroke="#000" stroke-width=".91" transform="matrix(0 -.679146 -.679146 0 1058.51 47.7463)"/><path d="m250.2-189.6c2.76 0 5 2.24 5 5s-2.24 5-5 5-5-2.24-5-5 2.24-5 5-5" fill="#7ea4ff" fill-rule="nonzero" stroke="#000" stroke-width=".91" transform="matrix(0 -.679146 -.679146 0 984.35 464.871)"/><path d="m195.25-149.37c3.82 0 6.91 3.1 6.91 6.92s-3.09 6.91-6.91 6.91-6.92-3.09-6.92-6.91 3.1-6.92 6.92-6.92" fill="#ffb689" fill-rule="nonzero" stroke="#000" stroke-width=".91" transform="matrix(0 -.679146 -.679146 0 975.65 398.926)"/><path d="m-405.72-87.79c2.76 0 5 2.24 5 5 0 2.77-2.24 5-5 5-2.77 0-5-2.23-5-5 0-2.76 2.23-5 5-5" fill="#d8ff93" fill-rule="nonzero" stroke="#000" stroke-width=".91" transform="matrix(0 -.679146 -.679146 0 608.028 -49.7384)"/><path d="m-356.8 48.16c2.82 0 5.11 2.29 5.11 5.1 0 2.82-2.29 5.11-5.11 5.11-2.81 0-5.1-2.29-5.1-5.11 0-2.81 2.29-5.1 5.1-5.1" fill="#d8ff93" fill-rule="nonzero" stroke="#000" stroke-width=".91" transform="matrix(0 -.679146 -.679146 0 733.657 -108.912)"/><path d="m-247.63-77.24c2.97 0 5.38 2.4 5.38 5.37s-2.41 5.38-5.38 5.38-5.37-2.41-5.37-5.38 2.4-5.37 5.37-5.37" fill="#d8ff93" fill-rule="nonzero" stroke="#000" stroke-width=".91" transform="matrix(0 -.679146 -.679146 0 722.818 50.2116)"/><path d="m-290.11-144.45c2.76 0 5 2.24 5 5s-2.24 5-5 5-5-2.24-5-5 2.24-5 5-5" fill="#d8ff93" fill-rule="nonzero" stroke="#000" stroke-width=".91" transform="matrix(0 -.679146 -.679146 0 648.064 67.2582)"/><path d="m250.1 169.98c2.76 0 5 2.23 5 5 0 2.76-2.24 5-5 5s-5-2.24-5-5c0-2.77 2.24-5 5-5" fill="#ff4c76" fill-rule="nonzero" stroke="#000" stroke-width=".91" transform="matrix(0 -.679146 -.679146 0 1228.49 220.596)"/><path d="m281.935 130.425c3.17 0 5.74 2.57 5.74 5.74 0 3.18-2.57 5.75-5.74 5.75s-5.74-2.57-5.74-5.75c0-3.17 2.57-5.74 5.74-5.74" fill="#ff4c76" fill-rule="nonzero" stroke="#000" stroke-width=".91" transform="matrix(0 -.679146 -.679146 0 1223.75 268.574)"/><path d="m-323.53-35.36c2.97 0 5.37 2.41 5.37 5.37 0 2.97-2.4 5.38-5.37 5.38s-5.38-2.41-5.38-5.38c0-2.96 2.41-5.37 5.38-5.37" fill="#d8ff93" fill-rule="nonzero" stroke="#000" stroke-width=".91" transform="matrix(0 -.679146 -.679146 0 699.706 -29.7851)"/><path d="m-341.6-126.59c2.76 0 5 2.24 5 5s-2.24 5-5 5-5-2.24-5-5 2.24-5 5-5" fill="#d8ff93" fill-rule="nonzero" stroke="#000" stroke-width=".91" transform="matrix(0 -.679146 -.679146 0 625.224 20.1594)"/><path d="m180.667.353c3.64 0 6.59 2.95 6.59 6.6 0 3.64-2.95 6.59-6.59 6.59s-6.594-2.95-6.594-6.59c0-3.65 2.954-6.6 6.594-6.6" fill="#ffb689" fill-rule="nonzero" stroke="#000" stroke-width=".91" transform="matrix(0 -.679146 -.679146 0 1067.21 287.557)"/><path d="m-34.64 97.18c2.79 0 5.05 2.27 5.05 5.06s-2.26 5.05-5.05 5.05c-2.8 0-5.06-2.26-5.06-5.05s2.26-5.06 5.06-5.06" fill="#ffb689" fill-rule="nonzero" stroke="#000" stroke-width=".91" transform="matrix(0 -.679146 -.679146 0 985.701 76.6168)"/><path d="m-424.22-19.35c2.76 0 5 2.23 5 5 0 2.76-2.24 5-5 5s-5-2.24-5-5c0-2.77 2.24-5 5-5" fill="#d8ff93" fill-rule="nonzero" stroke="#000" stroke-width=".91" transform="matrix(0 -.679146 -.679146 0 641.945 -108.783)"/><path d="m-238.26 64.46c2.76 0 5 2.24 5 5s-2.24 5-5 5-5-2.24-5-5 2.24-5 5-5" fill="#d8ff93" fill-rule="nonzero" stroke="#000" stroke-width=".91" transform="matrix(0 -.679146 -.679146 0 825.158 -39.4086)"/><path d="m333.16 69.35c3.29 0 5.96 2.67 5.96 5.96s-2.67 5.96-5.96 5.96-5.96-2.67-5.96-5.96 2.67-5.96 5.96-5.96" fill="#ff4c76" fill-rule="nonzero" stroke="#000" stroke-width=".91" transform="matrix(0 -.679146 -.679146 0 1217.21 344.696)"/><path d="m-15.07-162.61c2.76 0 5 2.24 5 5 0 2.77-2.24 5-5 5s-5-2.23-5-5c0-2.76 2.24-5 5-5" fill="#deb14c" fill-rule="nonzero" stroke="#000" stroke-width=".91" transform="matrix(0 -.679146 -.679146 0 822.523 266.384)"/><path d="m137.435-211.375c2.77 0 5.01 2.25 5.01 5.01 0 2.77-2.24 5.02-5.01 5.02s-5.01-2.25-5.01-5.02c0-2.76 2.24-5.01 5.01-5.01" fill="#edadcd" fill-rule="nonzero" stroke="#000" stroke-width=".91" transform="matrix(0 -.679146 -.679146 0 892.988 403.065)"/><path d="m333.325-64.345c3.4 0 6.15 2.76 6.15 6.16s-2.75 6.16-6.15 6.16-6.16-2.76-6.16-6.16 2.76-6.16 6.16-6.16" fill="#ed4fb7" fill-rule="nonzero" stroke="#000" stroke-width=".91" transform="matrix(0 -.679146 -.679146 0 1126.65 435.467)"/><path d="m359.08-111.92c3.4 0 6.16 2.76 6.16 6.16s-2.76 6.16-6.16 6.16-6.16-2.76-6.16-6.16 2.76-6.16 6.16-6.16" fill="#ed4fb7" fill-rule="nonzero" stroke="#000" stroke-width=".91" transform="matrix(0 -.679146 -.679146 0 1111.84 485.273)"/><path d="m65.73 143.6c2.96 0 5.36 2.4 5.36 5.36 0 2.97-2.4 5.37-5.36 5.37-2.97 0-5.37-2.4-5.37-5.37 0-2.96 2.4-5.36 5.37-5.36" fill="#deb14c" fill-rule="nonzero" stroke="#000" stroke-width=".91" transform="matrix(0 -.679146 -.679146 0 1085.6 113.046)"/><path d="m34.94-129.91c3.55 0 6.43 2.88 6.43 6.42 0 3.55-2.88 6.43-6.43 6.43s-6.42-2.88-6.42-6.43c0-3.54 2.87-6.42 6.42-6.42" fill="#eff241" fill-rule="nonzero" stroke="#000" stroke-width=".91" transform="matrix(0 -.679146 -.679146 0 879.666 277.175)"/><path d="m435.34 20.7c2.76 0 5 2.24 5 5s-2.24 5-5 5-5-2.24-5-5 2.24-5 5-5" fill="#ff4c76" fill-rule="nonzero" stroke="#000" stroke-width=".91" transform="matrix(0 -.679146 -.679146 0 1252.91 447.784)"/><path d="m465.66-31.34c2.76 0 5 2.24 5 5s-2.24 5-5 5-5-2.24-5-5 2.24-5 5-5" fill="#ff4c76" fill-rule="nonzero" stroke="#000" stroke-width=".91" transform="matrix(0 -.679146 -.679146 0 1238.16 503.718)"/><path d="m451.92-82.56c2.76 0 5 2.24 5 5 0 2.77-2.24 5-5 5-2.77 0-5-2.23-5-5 0-2.76 2.23-5 5-5" fill="#ff4c76" fill-rule="nonzero" stroke="#000" stroke-width=".91" transform="matrix(0 -.679146 -.679146 0 1194.04 529.173)"/><path d="m377.05-151.96c2.76 0 5 2.24 5 5s-2.24 5-5 5-5-2.24-5-5 2.24-5 5-5" fill="#deb14c" fill-rule="nonzero" stroke="#000" stroke-width=".91" transform="matrix(0 -.679146 -.679146 0 1096.06 525.458)"/><path d="m435.18 73.5c2.76 0 5 2.24 5 5s-2.24 5-5 5c-2.77 0-5-2.24-5-5s2.23-5 5-5" fill="#aee2ff" fill-rule="nonzero" stroke="#000" stroke-width=".91" transform="matrix(0 -.679146 -.679146 0 1288.66 411.816)"/><path d="m-298.74 108.44c3.85 0 6.97 3.12 6.97 6.97s-3.12 6.97-6.97 6.97-6.97-3.12-6.97-6.97 3.12-6.97 6.97-6.97" fill="#d8ff93" fill-rule="nonzero" stroke="#000" stroke-width=".91" transform="matrix(0 -.679146 -.679146 0 815.29 -111.69)"/><path d="m-397.1 162.58c2.76 0 5 2.24 5 5s-2.24 5-5 5-5-2.24-5-5 2.24-5 5-5" fill="#d8ff93" fill-rule="nonzero" stroke="#000" stroke-width=".91" transform="matrix(0 -.679146 -.679146 0 783.92 -213.922)"/><path d="m200.02 67.85c2.78 0 5.03 2.25 5.03 5.03s-2.25 5.03-5.03 5.03-5.03-2.25-5.03-5.03 2.25-5.03 5.03-5.03" fill="#b99dff" fill-rule="nonzero" stroke="#000" stroke-width=".91" transform="matrix(0 -.679146 -.679146 0 1125.14 255.925)"/></svg>